<svg width="139" height="225" viewBox="0 0 139 225" fill="none" xmlns="http://www.w3.org/2000/svg">
<path d="M64.6602 148.986L64.7828 148.771C64.7828 148.771 64.6908 148.924 64.6602 148.986Z" fill="#67DAFF"/>
<path d="M16.6274 108.863C16.6274 108.863 12.0573 113.955 8.92883 112.054C6.2604 110.428 0.248758 104.538 0.923534 102.667C1.13824 102.084 2.18107 101.563 2.85585 101.072C5.95368 98.8942 7.39525 99.0169 9.20488 98.9556C9.20488 98.9556 11.9653 99.8451 13.3455 102.023C14.7258 104.201 17.5476 106.103 17.0875 108.618L16.6274 108.833V108.863Z" fill="white"/>
<path d="M55.7026 43.036C58.8005 50.2138 63.9533 52.3304 65.4562 53.0972C69.1061 54.907 73.2162 55.9193 77.5715 55.9193C81.3441 55.9193 84.8407 55.3058 88.0919 53.9254C88.0919 53.9254 89.6255 51.3488 89.6255 45.582C89.6255 40.49 88.3066 36.9011 88.3066 36.9011C88.3066 36.9011 76.4367 39.6311 65.7323 37.1158C54.6598 34.5085 53.709 30.7969 53.709 30.7969L55.6413 43.0667L55.7026 43.036Z" fill="white"/>
<path d="M95.3006 29.8154C95.454 31.7479 94.0124 33.9871 92.0801 34.7846C90.1478 35.5822 88.4302 34.6926 88.2768 32.7295C88.1235 30.797 89.565 28.5577 91.4973 27.7602C93.4296 26.9627 95.1473 27.8522 95.3006 29.8154Z" fill="#399EFF"/>
<path d="M97.9384 132.146L114.225 135.55C114.746 135.673 115.022 136.256 114.777 136.747L109.226 147.299C109.226 147.299 109.87 154.108 106.312 155.121C102.784 156.102 90.9146 157.575 91.62 150.673C92.3255 143.771 95.8527 141.501 96.1287 138.618C96.2821 136.869 96.3741 134.753 96.4048 133.372C96.4048 132.575 97.1409 132.023 97.9077 132.176L97.9384 132.146Z" fill="white"/>
<path d="M113.703 71.9007C114.071 74.0786 112.568 76.4713 110.391 77.2074C108.213 77.9436 106.158 76.778 105.79 74.6001C105.422 72.4222 106.925 70.0296 109.102 69.2934C111.28 68.5572 113.335 69.7229 113.703 71.9007Z" fill="white"/>
<path d="M127.598 116.502L127.874 116.379C130.235 115.275 131.984 113.864 132.873 112.33C134.407 109.661 135.174 106.594 135.02 103.465V103.066L130.542 54.57C130.389 50.2142 128.088 46.3185 124.346 44.1713L103.98 32.423L104.747 31.104L125.113 42.8523C129.285 45.2756 131.892 49.6007 132.045 54.478L136.523 102.852C136.523 103.158 136.554 103.342 136.523 103.526C136.646 106.839 135.848 110.183 134.161 113.097C133.088 114.937 131.186 116.502 128.487 117.759L128.211 117.882L127.567 116.502H127.598Z" fill="white"/>
<path d="M128.396 117.453L128.028 116.625C130.451 115.49 132.23 114.048 133.15 112.453C134.714 109.723 135.481 106.594 135.358 103.435C135.358 103.404 135.358 103.343 135.358 103.312C135.358 103.189 135.358 103.005 135.358 103.005L130.88 54.5087C130.727 50.0302 128.365 46.0732 124.531 43.8647L104.441 32.2697L104.901 31.4722L124.991 43.0671C129.071 45.4291 131.616 49.6622 131.77 54.4167L136.248 102.821C136.248 103.097 136.279 103.281 136.248 103.404C136.371 106.717 135.573 109.999 133.917 112.852C132.905 114.631 131.034 116.164 128.396 117.391V117.453Z" fill="white"/>
<path d="M39.2016 199.599C38.7108 199.599 38.2201 199.599 37.7294 199.568C31.595 199.2 28.0985 196.593 27.6691 191.961C27.6077 191.317 27.6077 190.642 27.6691 190.029C28.0678 186.839 28.4052 185.826 28.4358 185.765L29.2947 186.072C29.2947 186.072 28.9573 187.053 28.5892 190.151C28.5279 190.703 28.4972 191.317 28.5892 191.9C28.9879 196.072 32.0858 198.341 37.7907 198.679C43.1582 198.986 48.7098 197.544 53.4026 194.568C54.108 194.139 54.7521 193.648 55.3962 193.157C56.8378 192.053 60.4264 189.507 63.1561 187.575C65.4258 185.98 66.5607 183.311 66.162 180.581L65.5485 177.452L66.438 177.268L67.0514 180.397C67.5115 183.495 66.2233 186.532 63.6776 188.311C60.9478 190.243 57.3592 192.759 55.9483 193.863C55.3042 194.384 54.5988 194.875 53.8626 195.305C49.4459 198.096 44.2931 199.599 39.2016 199.599Z" fill="white"/>
<path d="M39.4771 195.857C38.9863 195.857 38.5263 195.857 38.0355 195.826C32.0852 195.489 28.7113 192.943 28.2819 188.464C27.9139 184.661 30.1222 181.164 34.0482 179.323C36.8087 178.004 38.9863 175.888 40.3666 174.323L41.0413 174.906C39.6304 176.532 37.3301 178.741 34.4469 180.121C30.8277 181.839 28.8647 184.906 29.2021 188.372C29.6008 192.391 32.576 194.599 38.1275 194.937C43.3417 195.243 48.6786 193.832 53.218 190.949C53.8928 190.52 54.5369 190.059 55.1503 189.599C56.5305 188.526 59.9964 186.072 62.6648 184.201C64.8425 182.667 65.9774 180.059 65.5787 177.421L65.1186 173.802L66.0081 173.679L66.4681 177.268C66.9282 180.244 65.6707 183.188 63.1863 184.906C60.5178 186.777 57.0826 189.201 55.7024 190.274C55.0583 190.765 54.3835 191.256 53.7087 191.685C49.4147 194.384 44.4459 195.857 39.5078 195.857H39.4771Z" fill="white"/>
<path d="M63.8608 148.864L64.0141 148.587C64.5662 147.667 64.9956 146.686 65.3023 145.643L65.3943 145.336L66.8359 145.796L66.7439 146.072C66.4065 147.207 65.9158 148.311 65.3023 149.324L65.149 149.6L63.8301 148.833L63.8608 148.864Z" fill="white"/>
<path d="M65.0572 149.201L64.2598 148.741C64.8119 147.79 65.2719 146.778 65.5786 145.735L66.4374 146.011C66.1001 147.115 65.6093 148.189 65.0266 149.201H65.0572Z" fill="white"/>
<path d="M36.0424 142.452C36.0424 142.115 36.0117 141.778 36.0117 141.44C36.0117 137.636 37.3919 133.956 39.8763 131.103L40.091 130.857L41.2259 131.87L41.0112 132.115C38.7415 134.692 37.5146 138.005 37.5146 141.44C37.5146 141.747 37.576 142.636 37.576 142.636L36.0731 142.728V142.422L36.0424 142.452Z" fill="white"/>
<path d="M36.349 142.422C36.349 142.084 36.3184 141.777 36.3184 141.44C36.3184 137.698 37.6679 134.109 40.1216 131.317L40.7964 131.9C38.496 134.538 37.2078 137.943 37.2078 141.44C37.2078 141.747 37.2078 142.053 37.2078 142.36L36.3184 142.422H36.349Z" fill="white"/>
<path d="M66.0388 146.409L65.7934 146.348C64.9346 145.949 44.8753 136.41 39.8452 132.391C39.6612 132.238 39.5385 131.992 39.5692 131.747C40.3973 119.201 52.7886 101.134 53.31 100.367L53.4941 100.122L54.7516 100.98L54.5676 101.226C54.4449 101.41 42.0536 119.477 41.1027 131.594C45.8568 135.06 64.1371 143.833 66.2228 144.845C67.0509 144.109 73.0319 139.998 78.4301 134.17L78.6448 133.956L79.749 134.998L79.5343 135.213C73.4306 141.839 66.5602 146.256 66.4989 146.317H66.4375L66.1001 146.44H66.0388V146.409Z" fill="white"/>
<path d="M66.1006 146.102C66.1006 146.102 65.9779 146.103 65.9166 146.072C65.0578 145.673 45.0292 136.133 40.0297 132.176C39.907 132.084 39.8457 131.931 39.8457 131.778C40.6738 119.324 53.0345 101.318 53.5559 100.582L54.292 101.103C54.1694 101.287 41.7167 119.416 40.7659 131.624C45.6733 135.366 63.8003 144.078 66.07 145.152C67.2662 144.354 73.2164 140.274 78.6453 134.385L79.3201 134.998C73.2164 141.624 66.438 145.98 66.346 146.041C66.2847 146.103 66.1926 146.102 66.1006 146.102Z" fill="white"/>
<path d="M54.0168 180.642C49.1707 180.642 43.2204 179.415 41.0427 175.949C37.3928 170.182 35.3071 145.857 36.0739 142.391C36.1352 142.115 36.3499 141.9 36.5953 141.839C36.6567 141.839 36.718 141.839 36.7793 141.839C37.0861 141.839 37.2394 141.9 37.3621 142.023C43.1284 147.667 63.9237 148.004 64.8132 148.004C65.2119 148.004 65.5187 148.281 65.58 148.679C65.8561 151.011 68.1871 171.654 65.488 176.593C64.8439 177.759 63.617 178.679 61.7767 179.384L61.5007 179.507L60.9486 178.096L61.2246 177.973C62.6969 177.421 63.709 176.685 64.1691 175.857C66.4695 171.685 64.5065 152.759 64.1691 149.507C60.2738 149.415 44.2019 148.802 37.5155 144.047C37.3928 150.121 39.2331 170.151 42.3616 175.121C44.2019 178.065 49.7841 179.108 54.0168 179.108C54.5689 179.108 55.121 179.108 55.6424 179.047H55.9491L56.0411 180.55H55.7344C55.1823 180.611 54.6302 180.611 54.0475 180.611L54.0168 180.642Z" fill="white"/>
<path d="M54.0165 180.335C48.9863 180.335 43.3121 178.986 41.2877 175.795C37.6685 170.059 35.6135 145.919 36.3803 142.452C36.411 142.299 36.5336 142.176 36.687 142.115C36.8404 142.054 37.0244 142.115 37.1471 142.238C43.0974 148.096 64.5982 148.311 64.8129 148.311C65.0276 148.311 65.2423 148.495 65.273 148.71C65.3957 149.63 67.9414 171.501 65.2116 176.44C64.6289 177.513 63.4327 178.433 61.6537 179.108L61.3163 178.249C62.8499 177.667 63.9234 176.869 64.4142 176.01C66.8066 171.654 64.7516 152.237 64.4142 149.201C61.4083 149.139 43.6801 148.618 37.2084 143.465C36.9324 148.526 38.742 169.967 42.0852 175.305C44.1402 178.556 50.5506 179.691 55.6421 179.384L55.7034 180.274C55.1513 180.305 54.5992 180.335 54.0472 180.335H54.0165Z" fill="white"/>
<path d="M85.9457 224.967C85.455 224.967 84.9642 224.967 84.4735 224.936C78.3392 224.568 74.8426 221.961 74.4132 217.329C74.3519 216.685 74.3519 216.01 74.4132 215.396C74.8119 212.206 75.1493 211.194 75.18 211.133L76.0388 211.439C76.0388 211.439 75.7014 212.421 75.3333 215.519C75.272 216.071 75.2413 216.685 75.3333 217.267C75.7321 221.439 78.8299 223.709 84.5348 224.047C89.9024 224.353 95.4539 222.912 100.147 219.936C100.821 219.507 101.496 219.016 102.14 218.525C103.582 217.421 107.171 214.875 109.9 212.942C112.17 211.347 113.305 208.679 112.906 205.949L112.293 202.82L113.182 202.636L113.796 205.765C114.256 208.863 112.967 211.899 110.422 213.679C107.692 215.611 104.103 218.126 102.692 219.231C102.048 219.752 101.343 220.243 100.607 220.672C96.1901 223.464 91.0372 224.967 85.9457 224.967Z" fill="white"/>
<path d="M86.2212 221.255C85.7305 221.255 85.2704 221.255 84.7797 221.225C78.8294 220.887 75.4555 218.341 75.0261 213.863C74.658 210.059 76.8664 206.562 80.7924 204.722C83.7062 203.341 86.0065 201.041 87.4174 199.354L88.1229 199.937C86.6506 201.685 84.2582 204.078 81.1911 205.519C77.5718 207.237 75.6088 210.305 75.9462 213.771C76.345 217.789 79.3201 219.998 84.8717 220.335C90.0859 220.642 95.4534 219.231 99.9621 216.347C100.637 215.918 101.281 215.458 101.894 214.998C103.275 213.924 106.741 211.47 109.409 209.599C111.587 208.065 112.722 205.458 112.323 202.82L111.832 199.2L112.722 199.078L113.212 202.697C113.672 205.673 112.415 208.617 109.93 210.335C107.262 212.206 103.796 214.63 102.447 215.703C101.802 216.194 101.128 216.685 100.453 217.114C96.1588 219.814 91.19 221.286 86.2519 221.286L86.2212 221.255Z" fill="white"/>
<path d="M110.79 168.189L110.944 167.912C111.833 166.225 112.385 164.416 112.539 162.514V162.207L114.072 162.33V162.637C113.858 164.722 113.244 166.747 112.263 168.587L112.109 168.863L110.76 168.158L110.79 168.189Z" fill="white"/>
<path d="M112.018 168.495L111.221 168.066C112.141 166.348 112.693 164.508 112.877 162.575L113.766 162.667C113.582 164.722 113 166.686 112.018 168.526V168.495Z" fill="white"/>
<path d="M83.1862 165.213C82.4808 162.544 82.5115 159.722 83.2476 157.084L83.3396 156.777L84.8118 157.176L84.7198 157.483C84.0451 159.906 84.0451 162.421 84.6585 164.845L84.7505 165.151L83.2783 165.52L83.1862 165.213Z" fill="white"/>
<path d="M83.4928 165.152C82.818 162.544 82.818 159.784 83.5541 157.176L84.413 157.422C83.7382 159.876 83.7075 162.483 84.3516 164.937L83.4621 165.182L83.4928 165.152Z" fill="white"/>
<path d="M113.214 163.373C109.104 162.759 89.3203 159.722 83.7074 158.587C83.4621 158.526 83.2474 158.373 83.1553 158.127C81.039 153.189 80.2109 144.324 80.7016 131.778V131.471L82.2352 131.532V131.839C81.7751 143.802 82.5419 152.606 84.4742 157.299C90.2405 158.311 109.778 161.256 112.907 161.747C114.287 159.078 122.568 142.361 120.789 128.496V128.189L122.262 128.005V128.312C124.317 143.894 114.103 162.759 114.011 162.943C113.888 163.189 113.612 163.342 113.336 163.342H113.244L113.214 163.373Z" fill="white"/>
<path d="M113.306 163.066H113.245C112.999 163.035 89.9344 159.538 83.7387 158.281C83.5854 158.281 83.4627 158.158 83.4014 158.005C81.3157 153.127 80.4876 144.293 80.9476 131.778H81.8678C81.4077 143.833 82.2052 152.667 84.1375 157.422C90.2105 158.618 110.27 161.655 113.03 162.084C114.288 159.722 122.876 142.729 121.035 128.465L121.925 128.342C123.919 143.925 113.766 162.606 113.674 162.79C113.582 162.943 113.429 163.035 113.276 163.035L113.306 163.066Z" fill="white"/>
<path d="M100.698 206.01C95.8825 206.01 89.9321 204.783 87.7545 201.317C83.9819 195.305 82.4789 168.066 83.1844 164.845C83.2457 164.569 83.4604 164.354 83.7058 164.293C83.7672 164.293 83.8285 164.293 83.8898 164.293C84.1966 164.293 84.3499 164.354 84.4726 164.477C86.9263 166.87 92.5699 168.158 100.79 168.158C106.464 168.158 111.31 167.544 111.525 167.514H111.556C111.801 167.514 111.954 167.575 112.077 167.667C112.23 167.79 112.353 167.974 112.353 168.189C112.445 169.354 114.93 196.9 112.169 201.961C111.74 202.759 111.004 203.464 109.961 204.047L109.685 204.2L108.918 202.881L109.194 202.728C109.961 202.268 110.513 201.777 110.82 201.225C113.12 197.023 111.218 173.127 110.881 169.109C109.133 169.293 105.237 169.692 100.759 169.692C93.0913 169.692 87.6011 168.618 84.5033 166.502C84.2579 172.913 85.8835 195.581 89.012 200.52C90.8523 203.464 96.4652 204.507 100.667 204.507C101.342 204.507 102.017 204.507 102.661 204.446H102.968L103.09 205.949H102.784C102.109 206.041 101.373 206.041 100.667 206.041L100.698 206.01Z" fill="white"/>
<path d="M100.698 205.734C95.6371 205.734 90.0549 204.385 88.0306 201.195C84.2886 195.244 82.7857 168.127 83.4912 164.968C83.5218 164.815 83.6445 164.692 83.7979 164.631C83.9512 164.569 84.1353 164.63 84.2579 164.753C90.1776 170.581 111.372 167.913 111.586 167.882C111.709 167.882 111.832 167.882 111.924 167.974C112.016 168.066 112.077 168.158 112.077 168.281C112.169 169.446 114.654 196.9 111.924 201.869C111.525 202.606 110.82 203.28 109.838 203.833L109.378 203.035C110.206 202.544 110.789 202.023 111.126 201.409C113.519 197.023 111.525 172.514 111.218 168.802C108.059 169.17 90.7297 170.949 84.2886 165.949C83.8899 171.379 85.4848 195.428 88.7974 200.704C90.8217 203.894 97.3241 205.182 102.722 204.753L102.784 205.642C102.109 205.704 101.403 205.734 100.698 205.734Z" fill="white"/>
<path d="M44.2025 76.2874L43.6504 75.5819C44.8466 74.631 46.1961 73.9254 47.6684 73.4653L47.9444 74.3242C46.5949 74.7537 45.3373 75.3978 44.2332 76.2874H44.2025Z" fill="white"/>
<path d="M52.6672 81.6861L47.453 74.1402C47.453 74.1402 47.361 73.8027 47.453 73.68L59.3536 51.6558L60.1511 52.0852L48.4038 73.8641L53.4646 81.1646L52.7285 81.6861H52.6672Z" fill="white"/>
<path d="M22.5474 89.8455L22.0566 89.0786L43.6801 75.5205C43.6801 75.5205 43.9255 75.4285 44.0789 75.4898C44.2016 75.5205 44.3243 75.6432 44.3549 75.7659L47.3607 83.8946L46.5019 84.2014L43.7108 76.5941L22.5781 89.8455H22.5474Z" fill="white"/>
<path d="M48.5836 98.2011L28.4629 104.143L28.7235 105.025L48.8441 99.0837L48.5836 98.2011Z" fill="white"/>
<path d="M10.4937 112.943C9.88027 112.943 9.26684 112.79 8.68408 112.453C6.04631 110.827 0.218702 105.888 0.00400065 101.717C-0.0573426 100.183 0.586762 98.8945 1.93631 97.8822C5.37154 95.3055 8.19333 94.692 10.463 94.2012C11.8739 93.8945 13.0088 93.6491 13.8369 93.0049C15.2171 91.962 16.7814 90.6123 17.8549 89.6614C18.223 89.324 18.7444 89.1706 19.2351 89.2626C19.7259 89.3547 20.1859 89.6308 20.4313 90.0602L28.9887 104.324C29.2034 104.661 29.2341 105.091 29.0807 105.459C28.9274 105.827 28.6206 106.103 28.2219 106.226L16.8427 109.293C16.26 109.907 13.2848 112.974 10.463 112.974L10.4937 112.943ZM18.9897 90.1522C18.8057 90.1522 18.591 90.2135 18.4683 90.3669C17.3948 91.3178 15.7999 92.6982 14.4197 93.7718C13.4382 94.5386 12.15 94.8147 10.7084 95.1215C8.53072 95.6123 5.80094 96.1951 2.51908 98.6491C1.4149 99.4773 0.893478 100.49 0.954822 101.717C1.13885 105.305 6.41437 109.999 9.20549 111.716C11.9966 113.403 16.2906 108.68 16.352 108.618C16.4133 108.557 16.4747 108.496 16.5667 108.496L28.0686 105.397C28.0686 105.397 28.2833 105.275 28.3139 105.183C28.3446 105.06 28.3446 104.968 28.3139 104.845L19.7565 90.5817C19.6339 90.3669 19.4191 90.2443 19.2044 90.2136C19.1738 90.2136 19.1124 90.2136 19.0818 90.2136L18.9897 90.1522Z" fill="white"/>
<path d="M114.379 132.453L114.931 132.207C117.569 131.072 119.654 129.447 120.575 127.882C122.077 125.275 122.722 123.036 122.722 120.551V119.938H124.838V120.244C124.838 123.434 124.102 126.011 122.415 128.956C121.28 130.888 118.826 132.851 115.79 134.17L115.238 134.416L114.379 132.453Z" fill="white"/>
<path d="M114.807 132.637L115.083 132.514C117.783 131.348 119.93 129.692 120.85 128.066C122.383 125.428 123.058 123.128 123.027 120.582V120.275H124.53V120.582C124.53 123.404 123.825 125.95 122.138 128.833C121.034 130.735 118.611 132.606 115.636 133.925L115.36 134.048L114.746 132.637H114.807Z" fill="white"/>
<path d="M114.807 132.637L115.083 132.514C117.783 131.348 119.93 129.692 120.85 128.066C122.383 125.428 123.058 123.128 123.027 120.582V120.275H124.53V120.582C124.53 123.404 123.825 125.95 122.138 128.833C121.034 130.735 118.611 132.606 115.636 133.925L115.36 134.048L114.746 132.637H114.807Z" fill="white"/>
<path d="M115.544 133.618L115.176 132.79C117.936 131.594 120.145 129.876 121.095 128.22C122.66 125.52 123.334 123.189 123.334 120.582H124.255C124.255 123.342 123.549 125.827 121.924 128.68C120.881 130.52 118.488 132.361 115.575 133.618H115.544Z" fill="white"/>
<path d="M95.9137 136.379C87.8777 135.612 80.1178 133.22 73.462 129.416C60.4266 121.993 56.3166 111.839 55.0284 106.441L54.875 105.827L56.9607 105.336L57.022 105.643C58.3102 111.011 62.1749 120.52 74.5049 127.545C80.8846 131.195 88.3684 133.496 96.0977 134.232L96.7111 134.293L96.5271 136.41L95.9137 136.348V136.379Z" fill="white"/>
<path d="M95.944 136.072C87.9694 135.306 80.2402 132.913 73.6151 129.14C60.6716 121.778 56.623 111.717 55.3348 106.349L55.2734 106.042L56.7457 105.705L56.807 106.011C58.0339 111.103 61.9292 120.735 74.3512 127.821C80.7922 131.502 88.2761 133.833 96.0667 134.569H96.3734L96.2201 136.103H95.9134L95.944 136.072Z" fill="white"/>
<path d="M55.5801 84.9989L58.7086 51.1343L60.8249 51.349L57.6964 85.183L55.5801 84.9989Z" fill="white"/>
<path d="M55.918 84.7228L58.9851 51.4717L60.488 51.625L57.4209 84.8456L55.918 84.7228Z" fill="white"/>
<path d="M95.6676 48.1475L94.5996 50.0103L103.034 54.8472L104.102 52.9844L95.6676 48.1475Z" fill="white"/>
<path d="M95.765 48.5681L95.002 49.8984L102.904 54.4316L103.667 53.1012L95.765 48.5681Z" fill="white"/>
<path d="M80.0564 63.404C77.8481 63.404 75.6397 63.0666 73.4927 62.4225C68.1558 60.7967 65.3034 57.7599 65.0273 53.3428V53.036L66.5303 52.944V53.2508C66.7756 56.9624 69.26 59.5697 73.9221 60.9808C75.9771 61.5942 78.0321 61.901 80.0871 61.901C87.295 61.901 92.6625 58.0667 94.6868 55.7968C96.0057 54.3244 96.4044 53.1281 96.1897 52.668L96.067 52.3919L97.4779 51.8091L97.6006 52.0851C98.122 53.2814 97.4779 54.9992 95.8217 56.809C92.9692 59.9992 87.3256 63.404 80.0258 63.404H80.0564Z" fill="white"/>
<path d="M80.0558 63.0974C77.9701 63.0974 75.7924 62.7906 73.5534 62.1465C68.3392 60.5821 65.5788 57.6066 65.3027 53.3429L66.1922 53.2815C66.4376 57.1465 68.9833 59.8152 73.7988 61.2876C84.0124 64.355 92.0791 59.171 94.9009 56.0116C96.1584 54.6005 96.7718 53.2509 96.4651 52.5453L97.2933 52.1772C97.7533 53.2509 97.1399 54.8459 95.5756 56.5944C92.4471 60.1219 86.6809 63.0974 80.0251 63.0974H80.0558Z" fill="white"/>
<path d="M77.8172 56.9625C73.4005 56.9625 69.1678 55.981 65.2112 54.0178L64.9044 53.8644C56.6538 49.9074 52.4824 41.7787 52.4824 29.7542C52.4824 28.2512 52.5744 26.7788 52.7278 25.3371L52.7891 24.7236L54.9055 24.969L54.8441 25.5825C54.6908 26.9629 54.5988 28.3739 54.5988 29.7542C54.5988 40.8891 58.3714 48.3737 65.8246 51.9626L66.1313 52.116C69.7812 53.9258 73.7072 54.846 77.7865 54.846C81.5285 54.846 84.841 54.2018 87.9082 52.9442L88.4603 52.6988L89.2884 54.6619L88.7363 54.9073C85.4238 56.3184 81.8352 56.9932 77.7865 56.9932L77.8172 56.9625Z" fill="white"/>
<path d="M77.8171 56.6558C73.4311 56.6558 69.2597 55.6742 65.3644 53.7417L65.0577 53.5883C56.9297 49.6926 52.7891 41.6559 52.7891 29.7542C52.7891 28.2819 52.8811 26.8095 53.0344 25.3678V25.061L54.568 25.2451V25.5518C54.384 26.9322 54.292 28.3432 54.292 29.7542C54.292 41.0424 58.1259 48.5884 65.7018 52.2386L66.0085 52.392C69.6891 54.2018 73.6458 55.1527 77.8171 55.1527C81.6204 55.1527 84.9636 54.5086 88.0615 53.2202L88.3375 53.0975L88.9203 54.5085L88.6442 54.6312C85.3624 56.0116 81.8044 56.6864 77.8171 56.6864V56.6558Z" fill="white"/>
<path d="M87.9091 54.9687C87.4797 54.9687 87.081 54.7233 86.9276 54.3245C86.7129 53.7724 86.9276 53.1589 87.4797 52.9135C91.1603 51.3184 93.2153 47.5148 93.4607 41.932C93.5527 40.1222 93.3073 38.1284 92.7859 36.0425L92.7246 35.7358L92.9393 35.3677L94.7182 34.9076L94.8716 35.521C95.4543 37.8216 95.6997 39.9995 95.6384 42.0241C95.5157 44.6621 95.0249 46.9933 94.1661 48.9258C100.3 43.9259 103.797 36.564 103.797 28.5273C103.797 25.0611 103.122 21.6562 101.803 18.466C101.65 18.0059 101.466 17.6071 101.251 17.2391C96.8652 8.0367 87.5104 2.11652 77.3581 2.11652C67.2057 2.11652 59.3845 6.2576 54.8144 14.7851L54.661 15.0612L54.2316 15.1839L52.6367 14.325L52.7901 14.0489C57.9122 4.50913 65.9175 0 77.3581 0C88.7986 0 98.4295 6.38029 103.122 16.2882C103.368 16.7176 103.582 17.239 103.766 17.7605C105.177 21.1654 105.883 24.8157 105.883 28.558C105.883 40.1222 98.9816 50.4902 88.2772 54.9073L87.9091 54.9994V54.9687Z" fill="white"/>
<path d="M87.9088 54.6619C87.6021 54.6619 87.326 54.4779 87.2034 54.2018C87.05 53.8337 87.2034 53.3736 87.6021 53.2202C91.3747 51.5945 93.5217 47.6988 93.7671 41.9627C93.8591 40.1222 93.6137 38.1284 93.0616 35.9812L93.0003 35.6744L94.4725 35.3063L94.5339 35.6131C95.1166 37.883 95.362 40.0609 95.27 42.0547C95.1166 45.2449 94.4419 47.9135 93.2457 50.0608C100.055 45.0608 104.042 37.1161 104.042 28.5886C104.042 25.0917 103.367 21.6562 102.048 18.4047C101.895 17.9446 101.711 17.5458 101.496 17.147C97.0796 7.85264 87.6021 1.87113 77.3578 1.87113C67.1134 1.87113 59.1695 6.07351 54.5381 14.693L54.3847 14.9691L53.0352 14.2329L53.1885 13.9569C58.1266 4.78519 66.0399 0.337402 77.3578 0.337402C88.6756 0.337402 98.1838 6.65635 102.846 16.4415C103.091 16.871 103.306 17.3924 103.49 17.8832C104.87 21.2574 105.606 24.877 105.606 28.5886C105.606 40.0302 98.7666 50.2755 88.2155 54.6619L87.9088 54.7233V54.6619Z" fill="white"/>
<path d="M77.6947 34.2634C68.4626 34.2634 56.1633 32.1469 50.0903 21.9936C49.2315 20.5826 49.2008 18.7421 49.9676 17.2084L51.5318 14.141C51.8999 13.4048 52.636 12.914 53.4641 12.8833C54.3536 12.8833 55.0591 13.2514 55.4885 13.9569C58.1876 18.3127 67.9105 26.1347 87.2643 27.7911L87.8777 27.8524L87.6937 29.969H87.387C66.8983 28.1899 56.5927 19.7851 53.6788 15.0919L51.8692 18.1593C51.4091 19.0489 51.4398 20.0918 51.9306 20.8893C57.4821 30.1224 69.168 32.0855 78.0321 32.0855C82.5715 32.0855 86.4975 31.5641 88.4298 31.2573L89.0433 31.1653L89.3806 33.2818L89.0739 33.3432C86.2215 33.8033 82.2341 34.2941 77.7254 34.2941L77.6947 34.2634Z" fill="white"/>
<path d="M77.6949 33.9567C68.5241 33.9567 56.3474 31.8708 50.3358 21.8402C49.5383 20.4906 49.477 18.7728 50.2131 17.3618L51.7773 14.2943C52.1147 13.6501 52.7282 13.2514 53.4336 13.2207C54.2004 13.2207 54.8138 13.5581 55.1819 14.1716C57.9117 18.5887 67.7266 26.4721 87.2031 28.1592H87.5098L87.3871 29.6929H87.0804C67.0211 27.9445 56.7768 19.6317 53.8937 14.9691C53.8017 14.8465 53.679 14.7544 53.5256 14.7544C53.3109 14.7544 53.1882 14.8465 53.0962 14.9998L51.532 18.0366C51.0412 19.0182 51.0719 20.1531 51.5933 21.0427C57.2062 30.3984 69.0148 32.3616 77.9402 32.3616C82.5103 32.3616 86.4363 31.8401 88.3686 31.5334L88.6753 31.472L88.9207 32.9751L88.614 33.0364C86.0682 33.4352 82.0809 33.926 77.6335 33.926L77.6949 33.9567Z" fill="white"/>
<path d="M90.6986 35.521C90.1465 35.521 89.6251 35.3983 89.165 35.1223C88.3676 34.6315 87.9075 33.8032 87.8155 32.791C87.6315 30.6744 89.1957 28.2512 91.3121 27.3616C92.4162 26.9015 93.5511 26.9322 94.3792 27.4536C95.1767 27.9444 95.6368 28.7726 95.7288 29.7849C95.9128 31.9014 94.3486 34.3247 92.2322 35.2143C91.7108 35.429 91.1894 35.5517 90.6986 35.5517V35.521Z" fill="white"/>
<path d="M99.0423 125.397C89.8102 124.416 79.9339 121.011 70.5484 115.52C46.6245 101.533 47.8207 88.1893 48.0354 86.7169C48.1887 85.6433 48.7715 84.723 49.6303 84.0789C50.3358 83.5574 51.1332 83.312 51.992 83.312C52.2067 83.312 52.3908 83.312 52.6055 83.3733C54.7218 83.6801 56.2554 85.6739 55.9793 87.8211C55.9793 88.1892 55.5499 97.5143 74.597 108.649C83.5225 113.864 92.2332 116.87 100.545 117.575H100.852L100.729 119.109H100.423C91.8958 118.373 82.9704 115.305 73.8302 109.968C53.9857 98.3732 54.4458 88.1279 54.4764 87.6984C54.6298 86.3488 53.7096 85.0911 52.3908 84.9071C52.2681 84.9071 52.1454 84.9071 52.0227 84.9071C51.5013 84.9071 51.0105 85.0604 50.5811 85.3979C50.029 85.7966 49.6917 86.3794 49.5996 87.0543C49.3849 88.4346 48.3114 100.827 71.3765 114.324C80.578 119.692 90.2396 123.066 99.257 124.017H99.5637L99.4104 125.551H99.1037L99.0423 125.397Z" fill="white"/>
<path d="M99.0738 125.091C89.8723 124.109 80.0574 120.704 70.7025 115.244C46.9627 101.349 48.1282 88.2201 48.3429 86.7477C48.4963 85.7661 49.0177 84.9072 49.8151 84.2937C50.6126 83.7109 51.5634 83.4655 52.5449 83.6189C54.5079 83.895 55.9188 85.7354 55.6734 87.7293C55.6734 88.0974 55.244 97.6065 74.4445 108.833C83.4006 114.079 92.1727 117.085 100.515 117.79L100.454 118.68C91.9887 117.974 83.0939 114.907 74.0151 109.6C54.3239 98.0973 54.7839 88.036 54.8146 87.6066C54.9987 86.1036 53.9558 84.6925 52.4529 84.4778C51.7168 84.3551 50.9807 84.5391 50.3979 84.9992C49.7845 85.4594 49.4164 86.1036 49.2937 86.8397C49.079 88.2201 47.9748 100.827 71.1933 114.416C80.4254 119.815 90.1177 123.189 99.1965 124.14L99.1045 125.029L99.0738 125.091Z" fill="white"/>
<path d="M120.359 121.287L120.635 121.164C122.629 120.336 124.591 119.355 126.401 118.189C126.953 117.821 127.352 117.269 127.475 116.624C127.628 115.98 127.475 115.305 127.137 114.753C126.769 114.201 126.217 113.802 125.573 113.68L125.266 113.618L125.604 112.146L125.91 112.207C126.953 112.453 127.843 113.066 128.425 113.956C129.008 114.845 129.192 115.919 128.947 116.962C128.701 118.005 128.088 118.894 127.199 119.477C125.297 120.674 123.273 121.716 121.187 122.575L120.911 122.698L120.328 121.287H120.359Z" fill="white"/>
<path d="M121.126 122.299L120.789 121.471C122.813 120.643 124.776 119.631 126.617 118.465C127.23 118.066 127.69 117.453 127.844 116.717C127.997 115.98 127.844 115.244 127.475 114.631C127.077 114.017 126.463 113.557 125.727 113.404L125.911 112.514C126.862 112.729 127.69 113.312 128.212 114.14C128.733 114.968 128.917 115.95 128.702 116.931C128.488 117.882 127.905 118.71 127.077 119.232C125.206 120.428 123.212 121.471 121.126 122.299Z" fill="white"/>
<path d="M73.1568 72.0543L64.6914 67.0237C63.6792 66.5329 62.483 67.1157 62.299 68.22L59.7226 82.9744C59.5079 84.2628 60.152 85.5204 61.3175 86.1032L69.7829 91.1338C70.795 91.6246 71.9912 91.0418 72.1753 89.9375L74.7517 75.1831C74.9664 73.8947 74.3223 72.6371 73.1568 72.0543ZM72.0219 75.5819L71.5925 78.3732C71.5005 78.8333 71.2245 79.2014 70.8257 79.3855C70.611 79.4775 70.3963 79.5389 70.1816 79.5389C69.9669 79.5389 69.7522 79.4775 69.5375 79.3855L64.538 76.4714C63.7099 76.042 63.2498 75.1524 63.4032 74.2015L63.8326 71.4101C63.9246 70.95 64.2006 70.5819 64.5994 70.3979C64.9981 70.1831 65.4582 70.1831 65.8569 70.3979L70.8564 73.3119C71.6845 73.7414 72.1446 74.6309 71.9912 75.5819H72.0219Z" fill="white"/>
<path d="M104.718 101.41C101.497 101.287 98.5833 100.091 94.9947 97.4834C86.7747 91.4712 84.0449 78.5573 88.615 67.4224C92.3263 58.3734 99.8408 53.1895 109.196 53.1895C110.484 53.1895 111.833 53.2815 113.183 53.4962C115.054 53.7723 116.373 55.5514 116.097 57.4225C115.851 59.1096 114.379 60.3673 112.692 60.3673C112.508 60.3673 112.355 60.3673 112.171 60.3366C111.159 60.1832 110.146 60.0912 109.165 60.0912C100.056 60.0912 96.2216 67.0543 94.9947 70.0297C91.6515 78.1892 93.4304 87.7596 99.0434 91.87C100.362 92.8209 101.65 93.5264 102.877 93.9252L103.184 94.0172L102.724 95.4589L102.448 95.3669C101.068 94.9068 99.6261 94.1399 98.1845 93.097C92.0195 88.5878 90.0259 78.2199 93.6145 69.4469C94.964 66.1648 99.166 58.5575 109.165 58.5575C110.208 58.5575 111.312 58.6495 112.416 58.8029H112.478C113.674 58.8029 114.502 58.0974 114.625 57.1771C114.686 56.6557 114.563 56.1649 114.256 55.7354C113.95 55.306 113.49 55.0606 112.999 54.9686C111.741 54.7845 110.484 54.6925 109.257 54.6925C100.516 54.6925 93.5225 59.5391 90.0566 67.9746C85.7319 78.4959 88.2776 90.643 95.9148 96.2258C99.2581 98.6491 101.896 99.7533 104.81 99.876H105.116L105.055 101.41H104.748H104.718Z" fill="white"/>
<path d="M104.718 101.103C101.558 100.98 98.7059 99.8148 95.1787 97.2381C87.0813 91.3179 84.3822 78.5573 88.891 67.5452C93.093 57.2999 102.172 52.1772 113.152 53.803C114.87 54.0484 116.066 55.6742 115.79 57.3919C115.545 59.1097 113.919 60.306 112.201 60.0299C100.792 58.3122 96.1601 66.3795 94.7186 69.9071C91.314 78.1892 93.1543 87.9437 98.8899 92.1155C100.239 93.097 101.558 93.8025 102.816 94.2013L102.54 95.0602C101.19 94.6307 99.7794 93.8639 98.3685 92.8517C92.3262 88.4345 90.3632 78.2199 93.8905 69.5697C95.424 65.8274 100.301 57.3306 112.355 59.1404C113.582 59.3244 114.716 58.4655 114.901 57.2385C115.085 56.0116 114.226 54.8766 112.999 54.6926C102.448 53.1282 93.7371 58.0361 89.7191 67.8826C85.3637 78.5267 87.9095 90.8271 95.7001 96.5019C99.074 98.9865 101.804 100.091 104.748 100.214V101.134L104.718 101.103Z" fill="white"/>
<path d="M104.044 105.213L103.154 105.152C103.246 103.496 103.645 101.931 104.35 100.428L105.179 100.827C104.535 102.207 104.136 103.68 104.074 105.213H104.044Z" fill="white"/>
<path d="M125.299 114.017L124.594 113.434C126.771 110.888 127.753 107.514 127.262 104.201L128.152 104.079C128.673 107.637 127.6 111.256 125.269 114.017H125.299Z" fill="white"/>
<path d="M127.876 104.386H127.814L104.688 101.103C104.504 101.103 104.381 100.95 104.32 100.797L99.3203 85.5821L100.179 85.306L105.087 100.244L127.293 103.404L122.631 78.0362L123.52 77.8828L128.305 103.864C128.305 103.864 128.305 104.14 128.182 104.263C128.09 104.355 127.968 104.416 127.845 104.416L127.876 104.386Z" fill="white"/>
<path d="M114.625 135.765L113.797 135.366L124.318 113.986L103.921 105.52L98.3387 130.121L97.4492 129.906L103.154 104.784C103.154 104.784 103.277 104.539 103.4 104.477C103.522 104.416 103.645 104.416 103.768 104.477L125.115 113.342C125.115 113.342 125.33 113.495 125.36 113.587C125.391 113.71 125.391 113.833 125.36 113.956L114.625 135.796V135.765Z" fill="white"/>
<path d="M99.6261 156.409C96.9577 156.409 94.2586 155.98 92.6943 154.63C91.5288 153.649 91.038 152.299 91.1914 150.612C91.6515 146.348 93.093 143.833 94.2892 141.839C95.0254 140.581 95.6081 139.6 95.7001 138.557C95.8535 136.839 95.9455 134.784 95.9762 133.342C95.9762 132.821 96.2215 132.361 96.6203 132.054C97.019 131.747 97.5404 131.624 98.0312 131.716L114.318 135.121C114.717 135.213 115.023 135.459 115.207 135.827C115.391 136.195 115.361 136.594 115.207 136.962L109.717 147.391C109.778 148.403 110.085 154.538 106.466 155.55C104.963 155.98 102.325 156.409 99.6568 156.409H99.6261ZM97.6631 132.575C97.4791 132.575 97.2951 132.637 97.1724 132.759C96.9883 132.913 96.8657 133.127 96.8657 133.373C96.835 134.815 96.7736 136.9 96.5896 138.649C96.4669 139.906 95.8228 141.011 95.056 142.299C93.9212 144.232 92.5103 146.624 92.0809 150.704C91.9275 152.084 92.3262 153.158 93.2464 153.925C96.0068 156.256 103.031 155.55 106.19 154.661C109.318 153.771 108.766 147.391 108.766 147.33C108.766 147.238 108.766 147.146 108.828 147.084L114.379 136.532C114.379 136.532 114.441 136.318 114.379 136.195C114.318 136.103 114.226 136.011 114.134 135.98L97.8471 132.575C97.8471 132.575 97.7245 132.575 97.6938 132.575H97.6631Z" fill="white"/>
<path d="M109.38 86.7475C107.356 86.7475 105.362 86.2874 103.491 85.3365C100.362 83.7721 98.0314 81.0727 96.9272 77.7292C94.6575 70.8581 98.3995 63.4042 105.27 61.1343C112.14 58.8644 119.594 62.6067 121.863 69.4778C124.133 76.3488 120.391 83.8028 113.521 86.0727C112.171 86.5328 110.76 86.7475 109.38 86.7475ZM109.38 61.349C108.092 61.349 106.773 61.5637 105.515 61.9625C102.417 63.0054 99.9024 65.1527 98.4301 68.0974C96.9579 71.0115 96.7125 74.3243 97.7553 77.4225C98.7982 80.5206 100.945 83.0359 103.89 84.5083C106.803 85.9807 110.116 86.2261 113.214 85.1831C116.312 84.1402 118.827 81.993 120.299 79.0482C121.771 76.1341 122.017 72.8213 120.974 69.7232C119.931 66.625 117.784 64.1097 114.839 62.6374C113.122 61.7785 111.251 61.3183 109.349 61.3183L109.38 61.349Z" fill="white"/>
<path d="M135.511 95.0911V93.8641H135.818C136.707 93.7721 137.29 93.0973 137.198 92.3304L129.254 10.8896C129.193 10.1841 128.579 9.63197 127.874 9.63197C126.984 9.724 126.402 10.3988 126.494 11.1657L129.622 43.3739L128.119 43.5273L124.991 11.3191C124.929 10.5522 125.144 9.78534 125.635 9.17185C126.126 8.55836 126.831 8.19026 127.598 8.12891H127.628C129.377 8.12891 130.634 9.29456 130.788 10.7363L138.732 92.1771C138.793 92.9439 138.578 93.7108 138.087 94.3243C137.597 94.9377 136.891 95.3058 136.125 95.3672H135.787L135.542 95.0604L135.511 95.0911Z" fill="white"/>
<path d="M135.817 95.091V94.1707C135.817 94.1707 135.94 94.1707 135.971 94.1707C136.921 94.0787 137.596 93.2505 137.504 92.2996L129.56 10.8588C129.468 9.93853 128.64 9.23302 127.689 9.32504C126.769 9.41707 126.064 10.2453 126.156 11.1962L129.284 43.0977L128.395 43.1897L125.266 11.2882C125.205 10.5827 125.42 9.90787 125.849 9.3864C126.278 8.83426 126.922 8.52753 127.628 8.4355C129.069 8.28213 130.327 9.35572 130.48 10.7667L138.424 92.2076C138.578 93.6492 137.504 94.9069 136.093 95.0603C136.001 95.0603 135.909 95.0603 135.848 95.0603L135.817 95.091Z" fill="white"/>
</svg>
