<svg width="30" height="30" viewBox="0 0 30 30" fill="none" xmlns="http://www.w3.org/2000/svg">
<path d="M29.7949 6.27107L29.7855 6.25936C29.7849 6.25877 29.7844 6.25818 29.7838 6.25701C29.7832 6.25643 29.782 6.25525 29.7814 6.25467L29.772 6.24354C29.5389 5.97343 29.2266 5.89081 28.9459 5.94061C28.8182 5.9412 28.6934 5.94413 28.5709 5.9494C28.8082 5.58027 29.0168 5.16544 29.1732 4.69964C29.2805 4.37972 29.1949 4.027 28.9541 3.79146C28.7127 3.55592 28.3582 3.47916 28.0412 3.59342C27.7412 3.70181 25.755 4.41546 25.0665 4.6721C25.0407 4.68206 25.0226 4.68674 25.012 4.68909C24.9921 4.67913 24.9464 4.65276 24.8679 4.58655C23.0234 3.04793 20.5649 2.5745 18.2915 3.32038C16.1119 4.03579 14.4877 5.77245 13.9475 7.96673C13.7969 8.58018 13.7741 9.20185 13.7553 9.80417C9.67088 9.3454 6.16005 7.50385 3.30779 4.32172C3.11736 4.10961 2.83612 4.00298 2.55253 4.0352C2.26895 4.06801 2.01935 4.23617 1.88224 4.48636C1.21546 5.7039 0.930121 6.88043 1.01039 8.08157C1.07953 9.12099 1.37015 10.0684 1.87814 10.9192C1.66018 10.9069 1.44222 10.976 1.26995 11.1172C1.05141 11.2959 0.932465 11.5684 0.950042 11.8502C1.04555 13.4287 1.54592 14.7763 2.43711 15.8556C2.68788 16.1596 2.96737 16.4421 3.2779 16.7046C3.21345 16.7573 3.15662 16.82 3.10916 16.8909C2.94569 17.1329 2.91346 17.4411 3.02303 17.7118C3.81402 19.6646 5.10832 20.9742 6.95162 21.6743C5.10129 22.5737 3.1156 22.9475 0.933051 22.8139C0.531109 22.7893 0.163737 23.0413 0.0412799 23.4251C-0.0805916 23.8088 0.0740914 24.2266 0.416855 24.4387C3.27263 26.2064 6.64109 27.0261 9.89119 27.0261C13.2221 27.0261 16.4066 26.1238 19.1856 24.3795C20.7454 23.4005 22.1275 22.1829 23.2935 20.7615C23.8836 20.0425 24.4109 19.2791 24.8738 18.4776C25.3366 17.676 25.7339 16.8352 26.0632 15.9616C26.778 14.0632 27.1565 12.0459 27.1876 9.96472C27.2022 9.91901 27.2614 9.80827 27.3545 9.71218C27.7993 9.25048 28.2961 8.78819 28.7772 8.34113C29.0455 8.09153 29.3215 7.8349 29.5904 7.5765C29.8539 7.40876 30 7.12042 30 6.83239C30 6.6443 29.9379 6.44861 29.7949 6.27107ZM26.089 8.4923C25.9366 8.64991 25.4398 9.21942 25.4298 9.91608C25.4046 11.8022 25.0642 13.6273 24.4179 15.3417C21.9559 21.8765 15.5096 25.8385 8.376 25.2004C6.95983 25.0738 5.61983 24.7949 4.36596 24.3672C6.28543 24.0104 8.0719 23.2382 9.76697 22.0399C10.064 21.8296 10.2011 21.4581 10.1115 21.106C10.0218 20.7533 9.7242 20.4919 9.36327 20.4492C7.46958 20.2254 6.16883 19.5357 5.29171 18.2608H6.20809C6.63054 18.2608 6.99381 17.9596 7.07174 17.5442C7.14966 17.1288 6.92057 16.7163 6.52683 16.5628C4.5306 15.7858 3.35466 14.6345 2.9035 12.9898C3.43552 13.1299 3.95581 13.267 4.48256 13.4064C4.89856 13.516 5.33273 13.3086 5.50909 12.916C5.68486 12.5234 5.55069 12.0611 5.19211 11.8238C3.66402 10.8125 2.8701 9.55047 2.76405 7.96497C2.73065 7.46518 2.78573 6.97652 2.93514 6.47497C6.14423 9.62137 10.0412 11.3563 14.5375 11.6363C15.018 11.6662 15.4334 11.3041 15.4686 10.8237C15.492 10.5079 15.5014 10.2055 15.5102 9.91315C15.5272 9.36063 15.5436 8.83799 15.6543 8.38683C16.0545 6.76149 17.2158 5.52344 18.8399 4.99025C20.5333 4.4348 22.3654 4.78811 23.7418 5.93651C23.9685 6.12518 24.6576 6.70055 25.6806 6.31912C25.7813 6.28162 25.8815 6.24471 25.9823 6.20721C25.8991 6.27576 25.813 6.34431 25.7233 6.41287C25.3085 6.61829 25.1213 7.11597 25.3068 7.54721L25.3185 7.57533C25.5107 8.02122 26.0274 8.22746 26.4733 8.03528C26.4786 8.03294 26.4845 8.03059 26.4897 8.02825C26.5161 8.0218 26.543 8.01536 26.57 8.00891C26.4071 8.16828 26.246 8.32941 26.089 8.4923Z" fill="white"/>
</svg>
