<svg width="140" height="140" viewBox="0 0 140 140" fill="none" xmlns="http://www.w3.org/2000/svg">
<mask id="mask0_413_26" style="mask-type:alpha" maskUnits="userSpaceOnUse" x="0" y="0" width="140" height="140">
<circle cx="70" cy="70" r="70" fill="#C4C4C4"/>
</mask>
<g mask="url(#mask0_413_26)">
<circle cx="70" cy="70" r="70" fill="#FDFDFE"/>
<path d="M44.8644 90.8326L29.2522 100.2C29.2395 100.208 29.2287 100.218 29.2205 100.23L22.9777 109.594C22.9668 109.611 22.9609 109.63 22.9609 109.65V131.51C22.9609 131.548 22.9823 131.582 23.0162 131.599L29.2118 134.697C29.2257 134.704 29.241 134.708 29.2565 134.708H113.827C113.873 134.708 113.913 134.676 113.924 134.632L117.035 122.188C117.039 122.172 117.039 122.155 117.035 122.139L113.908 109.63C113.906 109.623 113.903 109.616 113.9 109.61L110.769 103.348L107.65 97.1095C107.639 97.0876 107.62 97.0705 107.598 97.0614L92.0405 90.8385C91.9913 90.8189 91.966 90.7643 91.9827 90.7141L95.0313 81.5683C95.0563 81.4935 94.9888 81.4206 94.9122 81.4397L70.0252 87.6614C70.0093 87.6654 69.9926 87.6654 69.9767 87.6614L45.0372 81.4266C44.9741 81.4108 44.9129 81.4585 44.9129 81.5236V90.7469C44.9129 90.782 44.8945 90.8146 44.8644 90.8326Z" fill="#F2F2FB" stroke="#F2F2FB" stroke-width="0.3"/>
<path d="M29.5078 119.067V132.111H24.4316C23.8794 132.111 23.4316 131.663 23.4316 131.111V106.935C23.4316 106.835 23.5624 106.797 23.6161 106.881L27.9499 113.707C28.9675 115.31 29.5078 117.169 29.5078 119.067Z" fill="#FF8860" stroke="#FF8860" stroke-width="0.3"/>
<path d="M55.0007 61.8907L51.2696 65.643C51.2257 65.6872 51.1525 65.6809 51.1168 65.6299L48.0675 61.2818C48.0557 61.2649 48.0493 61.2449 48.0493 61.2244V56.3815C48.0493 56.3436 48.0279 56.309 47.9941 56.2921L41.8326 53.2113C41.7987 53.1944 41.7773 53.1598 41.7773 53.1219V46.9735C41.7773 46.9356 41.7987 46.901 41.8326 46.8841L48.0356 43.7826C48.0447 43.778 48.0531 43.7721 48.0604 43.765L52.5861 39.3924C52.5934 39.3853 52.6017 39.3794 52.6108 39.3749L57.458 36.9512L62.3014 34.5296C62.313 34.5238 62.3234 34.5158 62.3319 34.506L66.5514 29.6839C66.5651 29.6682 66.5833 29.6573 66.6035 29.6524L73.083 28.1087C73.1168 28.1006 73.1523 28.1107 73.1769 28.1352L76.2733 31.2317L79.3979 34.3562C79.4055 34.3638 79.4142 34.3702 79.4239 34.375L85.6668 37.4964C85.6764 37.5013 85.6852 37.5076 85.6928 37.5152L91.9419 43.7642C91.9495 43.7718 91.9582 43.7782 91.9679 43.783L98.1701 46.8841C98.2039 46.901 98.2253 46.9356 98.2253 46.9735V53.0837C98.2253 53.1389 98.1806 53.1837 98.1253 53.1837H92.0533C91.9981 53.1837 91.9533 53.2285 91.9533 53.2837V59.4365C91.9533 59.4492 91.9509 59.4618 91.9462 59.4735L89.1066 66.5932C89.0811 66.6573 88.9998 66.6768 88.9479 66.6314L84.2512 62.5218C84.2171 62.4919 84.2073 62.4429 84.2273 62.4022L85.6688 59.4811C85.677 59.4645 85.6804 59.4459 85.6787 59.4275L84.8045 50.0852C84.8022 50.061 84.7912 50.0385 84.7736 50.0218L79.9844 45.4998C79.9571 45.4741 79.9178 45.4657 79.8825 45.4782L69.6427 49.0922C69.6218 49.0996 69.5989 49.0998 69.5778 49.0927L60.5486 46.0829C60.516 46.0721 60.4802 46.0787 60.4536 46.1005L55.6696 50.0197C55.6478 50.0375 55.6345 50.0637 55.6331 50.0919L55.0297 61.8253C55.0284 61.8499 55.0181 61.8732 55.0007 61.8907Z" fill="#AC5804" stroke="#AC5804" stroke-width="0.3"/>
<path d="M51.2158 71.944L57.4388 62.6095C57.4497 62.5931 57.4556 62.5738 57.4556 62.554V56.3123V50.1021C57.4556 50.0642 57.477 50.0296 57.5109 50.0127L63.6829 46.9267C63.711 46.9126 63.7442 46.9126 63.7723 46.9267L69.9549 50.0179C69.983 50.032 70.0162 50.032 70.0443 50.0179L76.2269 46.9267C76.255 46.9126 76.2882 46.9126 76.3163 46.9267L82.4883 50.0127C82.5222 50.0296 82.5436 50.0642 82.5436 50.1021V56.3123V62.554C82.5436 62.5738 82.5494 62.5931 82.5604 62.6095L88.7786 71.9368C88.801 71.9704 88.801 72.0142 88.7786 72.0478L82.561 81.3742C82.5497 81.3912 82.5334 81.4043 82.5144 81.4118L75.0939 84.3327C75.0829 84.337 75.0714 84.3393 75.0596 84.3396L66.874 84.536C66.8671 84.5362 66.8602 84.5357 66.8533 84.5344L59.3092 83.1295C59.2897 83.1259 59.2717 83.1165 59.2576 83.1027L54.3316 78.276C54.3236 78.2683 54.3171 78.2592 54.3121 78.2493L51.2095 72.0442C51.1935 72.0121 51.1959 71.9739 51.2158 71.944Z" fill="#FFCBBA" stroke="#FFCBBA" stroke-width="0.3"/>
<path d="M116.005 119.8H108.283C107.731 119.8 107.283 120.248 107.283 120.8V122.446C107.283 122.998 107.731 123.446 108.283 123.446H116.005C116.557 123.446 117.005 122.998 117.005 122.446V120.8C117.005 120.248 116.557 119.8 116.005 119.8Z" fill="#4846B5" stroke="#4846B5" stroke-width="0.3"/>
<path d="M116.005 114.523H108.283C107.731 114.523 107.283 114.971 107.283 115.523V117.169C107.283 117.721 107.731 118.169 108.283 118.169H116.005C116.557 118.169 117.005 117.721 117.005 117.169V115.523C117.005 114.971 116.557 114.523 116.005 114.523Z" fill="#4846B5" stroke="#4846B5" stroke-width="0.3"/>
<path d="M95.0879 78.2654L85.6799 81.4014L88.8159 75.1294V68.8574L91.9519 65.7214L95.0879 59.4494V56.3134L98.2239 53.1774V50.0414V46.9054L95.0879 43.7694L91.9519 40.6334H88.8159L85.6799 34.3614L76.2719 31.2254V28.0894H73.1359H69.9999V24.9534L66.8639 28.0894L63.7279 31.2254L60.5919 34.3614L51.1839 37.4974L48.0479 43.7694H44.9119H41.7759L38.6399 46.9054V50.0414L41.7759 53.1774L44.9119 56.3134V59.4494L48.0479 65.7214L51.1839 71.9934V78.2654L54.3199 81.4014H48.0479L41.7759 75.1294L38.6399 65.7214L35.5039 53.1774L38.6399 40.6334L48.0479 28.0894L60.5919 21.8174H76.2719L88.8159 24.9534L95.0879 31.2254L104.496 46.9054V56.3134V59.4494L101.36 71.9934L95.0879 78.2654Z" fill="#E9EAF8"/>
<path d="M104.496 59.4494V56.3134M104.496 59.4494L101.36 71.9934L95.0879 78.2654L85.6799 81.4014L88.8159 75.1294V68.8574L91.9519 65.7214L95.0879 59.4494V56.3134L98.2239 53.1774V50.0414V46.9054L95.0879 43.7694L91.9519 40.6334H88.8159L85.6799 34.3614L76.2719 31.2254V28.0894H73.1359H69.9999V24.9534L66.8639 28.0894L63.7279 31.2254L60.5919 34.3614L51.1839 37.4974L48.0479 43.7694H44.9119H41.7759L38.6399 46.9054V50.0414L41.7759 53.1774L44.9119 56.3134V59.4494L48.0479 65.7214L51.1839 71.9934V78.2654L54.3199 81.4014H48.0479L41.7759 75.1294L38.6399 65.7214L35.5039 53.1774L38.6399 40.6334L48.0479 28.0894L60.5919 21.8174H76.2719L88.8159 24.9534L95.0879 31.2254L104.496 46.9054V59.4494Z" stroke="#E9EAF8" stroke-width="0.3"/>
<path d="M106.474 94.747L95.48 89.6745C97.8242 86.1995 99.255 82.058 99.3902 77.5931C104.457 71.078 107.24 62.993 107.24 54.7434C107.24 44.1751 102.724 34.0654 94.8508 27.0074C86.8697 19.8515 76.5601 16.5548 65.8076 17.7347C48.6968 19.6084 34.8964 33.3892 32.9972 50.5059C31.9094 60.3 34.6102 69.8922 40.6118 77.5931C40.745 82.0599 42.1758 86.1995 44.52 89.6745L33.5264 94.749C25.9157 98.2593 21 105.945 21 114.324V137.023C21 138.128 21.8954 139.023 23 139.023H117C118.105 139.023 119 138.128 119 137.023V114.324C119 105.945 114.084 98.2593 106.474 94.747ZM76.4719 95.9034H63.5281C54.563 95.9034 47.0464 89.6569 45.0551 81.2916C53.3067 86.7973 62.9362 88.0634 70 88.0634C79.7863 88.0634 88.2947 85.6997 94.9587 81.2446C92.9849 89.6334 85.4546 95.9034 76.4719 95.9034ZM36.8917 50.9371C38.591 35.6295 50.9331 23.305 66.2348 21.6312C67.5147 21.492 68.7848 21.4214 70.047 21.4214C78.2751 21.4214 86.0426 24.3752 92.2342 29.9259C99.2785 36.243 103.32 45.2884 103.32 54.7434C103.32 62.3854 100.788 69.5728 96.0053 75.5429C88.0163 82.644 77.4637 84.1434 70 84.1434C62.5422 84.1434 51.9974 82.644 43.9967 75.5449C38.4283 68.5908 35.8999 59.861 36.8917 50.9371ZM91.56 135.103H48.44V123.343H91.56V135.103ZM115.08 134.103C115.08 134.656 114.632 135.103 114.08 135.103H103.32V119.898C103.32 115.717 104.726 111.754 107.316 108.546C107.996 107.704 108.005 106.469 107.24 105.703V105.703C106.475 104.938 105.226 104.933 104.53 105.762C101.208 109.719 99.4 114.669 99.4 119.898V135.103H95.48V120.423C95.48 119.871 95.0323 119.423 94.48 119.423H45.52C44.9677 119.423 44.52 119.871 44.52 120.423V135.103H40.6V119.898C40.6 114.669 38.7919 109.719 35.4698 105.762C34.7739 104.933 33.5254 104.938 32.7602 105.703V105.703C31.9948 106.469 32.0045 107.704 32.6844 108.546C35.274 111.754 36.68 115.717 36.68 119.898V135.103H25.92C25.3677 135.103 24.92 134.656 24.92 134.103V114.324C24.92 107.467 28.9419 101.18 35.1688 98.3064L47.0719 92.8125C51.2428 97.1245 57.0699 99.8234 63.5281 99.8234H76.4719C82.9301 99.8234 88.7552 97.1245 92.9261 92.8145L104.831 98.3083C111.058 101.18 115.08 107.467 115.08 114.324V134.103Z" fill="black"/>
<path d="M90.0888 105.489C87.4953 105.489 85.3848 107.6 85.3848 110.193C85.3848 112.787 87.4953 114.897 90.0888 114.897C92.6822 114.897 94.7928 112.787 94.7928 110.193C94.7928 107.6 92.6822 105.489 90.0888 105.489ZM90.0888 111.761C89.2248 111.761 88.5208 111.059 88.5208 110.193C88.5208 109.328 89.2248 108.625 90.0888 108.625C90.9527 108.625 91.6568 109.328 91.6568 110.193C91.6568 111.059 90.9527 111.761 90.0888 111.761Z" fill="#4846B5"/>
<path d="M75.8809 129.212C75.8809 128.129 76.7584 127.252 77.8409 127.252V127.252C78.9233 127.252 79.8009 128.129 79.8009 129.212V129.212C79.8009 130.294 78.9233 131.172 77.8409 131.172V131.172C76.7584 131.172 75.8809 130.294 75.8809 129.212V129.212Z" fill="#4846B5"/>
<path d="M83.7188 129.212C83.7188 128.129 84.5963 127.252 85.6787 127.252V127.252C86.7612 127.252 87.6387 128.129 87.6387 129.212V129.212C87.6387 130.294 86.7612 131.172 85.6787 131.172V131.172C84.5963 131.172 83.7188 130.294 83.7188 129.212V129.212Z" fill="#4846B5"/>
<path d="M88.1875 110.333C88.1875 109.251 89.065 108.373 90.1475 108.373V108.373C91.23 108.373 92.1075 109.251 92.1075 110.333V110.333C92.1075 111.416 91.23 112.293 90.1475 112.293V112.293C89.065 112.293 88.1875 111.416 88.1875 110.333V110.333Z" fill="#4846B5"/>
<path d="M73.1367 110.193C73.1367 107.595 75.2428 105.489 77.8407 105.489V105.489C80.4387 105.489 82.5447 107.595 82.5447 110.193V110.193C82.5447 112.791 80.4387 114.897 77.8407 114.897V114.897C75.2428 114.897 73.1367 112.791 73.1367 110.193V110.193Z" fill="#FF8860"/>
<path d="M52.3594 129.212C52.3594 128.129 53.2369 127.252 54.3194 127.252V127.252C55.4019 127.252 56.2794 128.129 56.2794 129.212V129.212C56.2794 130.294 55.4019 131.172 54.3194 131.172V131.172C53.2369 131.172 52.3594 130.294 52.3594 129.212V129.212Z" fill="#4846B5"/>
<path d="M60.1992 129.212C60.1992 128.129 61.0767 127.252 62.1592 127.252V127.252C63.2417 127.252 64.1192 128.129 64.1192 129.212V129.212C64.1192 130.294 63.2417 131.172 62.1592 131.172V131.172C61.0767 131.172 60.1992 130.294 60.1992 129.212V129.212Z" fill="#4846B5"/>
<path d="M68.041 129.212C68.041 128.129 68.9185 127.252 70.001 127.252V127.252C71.0835 127.252 71.961 128.129 71.961 129.212V129.212C71.961 130.294 71.0835 131.172 70.001 131.172V131.172C68.9185 131.172 68.041 130.294 68.041 129.212V129.212Z" fill="#4846B5"/>
<path d="M73.1348 56.802C73.1348 55.6649 74.0565 54.7432 75.1936 54.7432V54.7432C76.3306 54.7432 77.2524 55.6649 77.2524 56.802V57.7019C77.2524 58.839 76.3306 59.7608 75.1936 59.7608V59.7608C74.0565 59.7608 73.1348 58.839 73.1348 57.7019V56.802Z" fill="black"/>
<path d="M66.8633 56.802C66.8633 55.6649 65.9415 54.7432 64.8045 54.7432V54.7432C63.6674 54.7432 62.7456 55.6649 62.7456 56.802V57.7019C62.7456 58.839 63.6674 59.7608 64.8045 59.7608V59.7608C65.9415 59.7608 66.8633 58.839 66.8633 57.7019V56.802Z" fill="black"/>
<path d="M69.4609 67.2596C69.4609 68.1124 68.7696 68.8037 67.9168 68.8037V68.8037C67.064 68.8037 66.3727 68.1124 66.3727 67.2596V65.7863C66.3727 64.9335 67.064 64.2422 67.9168 64.2422V64.2422C68.7696 64.2422 69.4609 64.9335 69.4609 65.7863V67.2596Z" fill="black"/>
<path d="M72.1867 68.8057C71.3339 68.8057 70.6426 68.1143 70.6426 67.2615V65.7882C70.6426 64.9354 71.3339 64.2441 72.1867 64.2441V64.2441C73.0395 64.2441 73.7308 64.9354 73.7308 65.7882V67.2615C73.7308 68.1143 73.0395 68.8057 72.1867 68.8057V68.8057Z" fill="black"/>
<path d="M69.9984 73.4184C66.3839 73.4184 62.9193 72.4319 59.8686 71.3068C58.9344 70.9623 57.8877 71.4102 57.5197 72.3354V72.3354C57.1518 73.2606 57.602 74.3123 58.5356 74.6584C61.9168 75.9117 65.8065 77.024 69.9984 77.024C74.1904 77.024 78.0803 75.9117 81.4614 74.6584C82.395 74.3123 82.8451 73.2606 82.4772 72.3354V72.3354C82.1093 71.4102 81.0625 70.9623 80.1283 71.3069C77.0777 72.4319 73.613 73.4184 69.9984 73.4184Z" fill="black"/>
<path d="M62.6163 53.3461C61.6518 53.8374 61.3383 54.4685 61.0151 55.3705C60.8133 55.9338 60.195 56.2186 59.6383 55.9993V55.9993C59.0984 55.7865 58.8199 55.1783 58.9937 54.6247C59.3859 53.3753 59.7943 52.2151 61.5514 51.32C63.2898 50.4343 64.3786 50.6894 65.5695 51.0664C66.1246 51.2421 66.4389 51.8435 66.2601 52.3976V52.3976C66.0906 52.923 65.5384 53.2094 65.0032 53.0735C64.1374 52.8538 63.5982 52.8458 62.6163 53.3461Z" fill="#673400"/>
<path d="M77.2763 53.515C78.2407 54.0064 78.5542 54.6374 78.8774 55.5395C79.0793 56.1027 79.6976 56.3876 80.2543 56.1682V56.1682C80.7942 55.9554 81.0727 55.3473 80.8989 54.7936C80.5067 53.5442 80.0983 52.3841 78.3411 51.4889C76.6028 50.6033 75.514 50.8584 74.3231 51.2354C73.768 51.4111 73.4536 52.0124 73.6324 52.5665V52.5665C73.802 53.092 74.3542 53.3783 74.8893 53.2425C75.7552 53.0227 76.2943 53.0148 77.2763 53.515Z" fill="#673400"/>
<path d="M100.767 49.4114C100.767 44.9948 97.1739 41.4016 92.7574 41.4016C92.2552 41.4016 91.7601 41.4492 91.2743 41.5402C90.8914 40.9401 90.4821 40.353 90.0458 39.7805C87.0413 35.8386 82.8895 32.8339 78.2464 31.2163V26.209L76.4433 26.2092C76.2963 26.2092 74.035 26.2309 71.8017 27.4163V26.209L69.9986 26.2092C66.5156 26.2162 62.8646 28.4016 61.7558 31.215C57.0401 32.8559 52.824 35.9388 49.8119 39.9666C49.428 40.4799 49.0661 41.0051 48.7245 41.5403C48.2382 41.4491 47.7428 41.4015 47.2402 41.4015C42.8236 41.4015 39.2305 44.9947 39.2305 49.4112C39.2305 52.9801 41.5531 56.0312 44.838 57.0549C45.2001 61.9676 46.9642 66.4941 49.7281 70.2335C49.6406 70.8321 49.596 71.4384 49.596 72.0507C49.596 76.3581 51.7869 80.3735 55.7649 83.357C59.5881 86.2244 64.643 87.8035 69.9988 87.8035C75.3547 87.8035 80.4096 86.2244 84.2327 83.357C88.2109 80.3735 90.4017 76.3581 90.4017 72.0507C90.4017 71.4387 90.3571 70.8326 90.2697 70.2344C93.0337 66.4947 94.7977 61.9677 95.1598 57.0548C98.4443 56.0309 100.767 52.9792 100.767 49.4114ZM97.1614 49.4114C97.1614 50.9581 96.3683 52.3285 95.1485 53.1151C94.9262 50.2979 94.2453 47.5758 93.1322 45.0244C95.3858 45.2153 97.1614 47.1093 97.1614 49.4114ZM42.8362 49.4114C42.8362 47.1087 44.613 45.2144 46.8674 45.0242C45.7538 47.5769 45.0717 50.2996 44.8492 53.1151C43.6294 52.3286 42.8362 50.9584 42.8362 49.4114ZM82.0694 80.4726C78.8663 82.875 74.5796 84.198 69.9988 84.198C65.4181 84.198 61.1314 82.875 57.9283 80.4726C54.8803 78.1865 53.2017 75.1956 53.2017 72.0508C53.1634 68.1549 55.7869 65.0144 59.079 62.7594C58.5099 61.6625 57.8287 60.4638 57.8497 59.0913V53.131C57.7832 50.4655 60.2209 47.8984 63.0236 47.9595C65.8755 47.9595 68.1956 50.2798 68.1959 53.1317L71.8015 53.1319C71.7346 50.4661 74.1706 47.8982 76.9738 47.9595C79.8266 47.9595 82.1477 50.2799 82.1477 53.1319V59.0913C82.2288 60.2095 81.4818 61.7248 80.9184 62.7594C84.6524 65.3047 86.7946 68.4605 86.7958 72.0508C86.796 75.1956 85.1173 78.1867 82.0694 80.4726ZM88.8015 65.8912C87.9654 64.3626 86.8134 62.9391 85.3696 61.6685C85.6248 60.8399 85.7535 59.9777 85.7535 59.0915V53.132C85.7535 48.2918 81.8149 44.354 76.9759 44.354C74.3113 44.3405 71.6817 45.6239 70.0005 47.8105C68.3954 45.7108 65.8656 44.354 63.0256 44.354C58.4175 44.2419 54.1322 48.4026 54.2443 53.132V59.0915C54.2443 59.9777 54.373 60.84 54.6282 61.6685C53.1843 62.9391 52.0322 64.3627 51.1962 65.8914C49.4009 62.7252 48.374 59.0645 48.374 55.1671C48.374 50.4193 49.8697 45.9098 52.6994 42.126C55.5849 38.2227 59.9012 35.3742 64.5621 34.107C65.0771 31.6939 66.7308 30.5289 68.196 30.122L68.1977 33.4354H71.0949C71.6901 31.8195 73.2341 30.4486 74.6407 30.1328V33.8932C79.5244 35.06 84.1047 37.8911 87.178 41.9663C90.0863 45.7822 91.6236 50.3469 91.6236 55.1671C91.6237 59.0645 90.5968 62.7251 88.8015 65.8912Z" fill="black"/>
<circle cx="70" cy="70" r="67.5" stroke="#F2F2FB" stroke-width="5"/>
</g>
</svg>
