<svg width="82" height="150" viewBox="0 0 82 150" fill="none" xmlns="http://www.w3.org/2000/svg">
<path d="M47.6676 33.4229C47.5586 33.2049 47.4496 32.9869 47.3188 32.7689C47.1444 32.4418 46.97 32.1366 46.7738 31.8096C46.9482 33.2485 46.1198 34.7093 44.2231 35.7994C40.7569 37.8052 35.1542 37.8052 31.688 35.7994C29.7913 34.7093 28.9629 33.2485 29.1373 31.8096C28.9629 32.1148 28.7667 32.4418 28.5923 32.7689C28.4833 32.9869 28.3525 33.2049 28.2435 33.4229C27.4369 35.3197 28.3089 37.4128 30.8814 38.8953C34.7836 41.1628 41.1275 41.1628 45.0297 38.8953C47.6022 37.4128 48.4742 35.3197 47.6676 33.4229Z" fill="#1F1F1F"/>
<path d="M10.9128 119.913C8.62379 118.583 7.35938 116.817 7.35938 114.92C7.35938 114.266 7.59918 113.416 8.05699 112.413L8.64559 112.675C8.23139 113.59 8.01338 114.375 8.01338 114.92C8.01338 116.577 9.1688 118.169 11.2398 119.368L10.9128 119.935V119.913Z" fill="#1F1F1F"/>
<path d="M13.463 115.356C12.0459 114.986 11.0213 114.572 9.69152 113.809C6.98828 112.261 5.50586 110.146 5.50586 107.878V103.016H6.59587V107.878C6.59587 109.731 7.88209 111.519 10.2365 112.871C11.4791 113.59 12.3948 113.961 13.7246 114.31L13.9426 114.354L13.681 115.4L13.463 115.335V115.356Z" fill="#1F1F1F"/>
<path d="M13.5288 115.138C12.1336 114.79 11.1308 114.375 9.82275 113.612C7.18491 112.086 5.74609 110.059 5.74609 107.878V103.234H6.4001V107.878C6.4001 109.819 7.72992 111.65 10.1498 113.045C11.4142 113.787 12.3516 114.157 13.7032 114.506L13.5506 115.138H13.5288Z" fill="#1F1F1F"/>
<path d="M16.2304 110.887C13.6798 110.603 11.5651 109.906 9.5377 108.75C7.29227 107.464 5.96245 105.741 5.67904 103.801C5.39564 101.882 6.15865 99.8765 7.81547 98.1324L7.96808 97.9797L8.75289 98.721L8.60028 98.8736C7.18327 100.378 6.52926 102.079 6.74726 103.648C6.98706 105.262 8.12068 106.701 10.0609 107.834C11.9575 108.925 13.9414 109.557 16.3394 109.84H16.5574L16.4266 110.93H16.2086L16.2304 110.887Z" fill="#1F1F1F"/>
<path d="M16.2514 110.668C13.7444 110.385 11.6516 109.709 9.64593 108.554C7.4659 107.289 6.17968 105.632 5.89628 103.757C5.63468 101.904 6.35408 99.9635 7.96731 98.2629L8.42511 98.699C6.96449 100.247 6.28868 102.013 6.52849 103.67C6.76829 105.349 7.96731 106.853 9.95113 108.009C11.8696 109.12 13.897 109.753 16.3168 110.036L16.2514 110.668Z" fill="#1F1F1F"/>
<path d="M8.81853 27.6455H7.72852V63.5103H8.81853V27.6455Z" fill="#1F1F1F"/>
<path d="M8.60127 27.8635H7.94727V63.2923H8.60127V27.8635Z" fill="#1F1F1F"/>
<path d="M17.7796 108.75C15.4033 108.532 13.2669 107.9 11.5447 106.919C9.25566 105.589 7.99125 103.714 8.07845 101.751V96.5842H9.14666V101.773C9.08126 103.343 10.1495 104.869 12.0679 105.981C13.6375 106.897 15.6432 107.485 17.8668 107.682H18.0848L17.9758 108.772H17.7578L17.7796 108.75Z" fill="#1F1F1F"/>
<path d="M17.8023 108.532C15.4696 108.314 13.3332 107.704 11.6546 106.723C9.43096 105.436 8.21014 103.627 8.29734 101.752V96.7808H8.92955V101.752C8.86415 103.387 9.95416 105 11.9598 106.156C13.5512 107.071 15.6004 107.682 17.8459 107.878L17.7805 108.51L17.8023 108.532Z" fill="#1F1F1F"/>
<path d="M19.2604 34.4259C16.252 34.4259 13.4179 33.75 11.2815 32.5073C9.36309 31.3954 8.16407 29.9128 7.88067 28.2994C7.64087 26.9477 8.05507 25.6177 9.07968 24.4404L18.8462 12.1657C18.9552 12.0349 19.1078 11.9695 19.2604 11.9695C19.413 11.9695 19.5874 12.0349 19.6746 12.1657L29.2886 24.2878C29.4848 24.484 29.681 24.7456 29.8554 25.0073C30.6184 26.1628 30.8582 27.3619 30.5748 28.5611C30.226 30.0872 29.0706 31.439 27.2393 32.4855C25.1029 33.7064 22.2689 34.4041 19.2604 34.4041V34.4259ZM9.9081 25.1381C9.10149 26.0756 8.77448 27.1221 8.94888 28.125C9.16689 29.4113 10.1915 30.6323 11.8265 31.5698C13.8103 32.7253 16.4482 33.3358 19.2604 33.3358C22.0727 33.3358 24.7105 32.7035 26.6943 31.5698C28.2639 30.6759 29.245 29.5422 29.5284 28.3212C29.7464 27.4273 29.5502 26.4898 28.9834 25.6395C28.809 25.3779 28.6563 25.1817 28.4819 24.9855L19.2604 13.3648L9.9081 25.1381Z" fill="#1F1F1F"/>
<path d="M19.2613 34.2077C16.4054 34.2077 13.5714 33.5754 11.3914 32.3327C9.53835 31.2644 8.36114 29.8254 8.09953 28.2774C7.88153 26.9911 8.27394 25.7266 9.25495 24.5929L19.0215 12.2963C19.0215 12.2963 19.1741 12.1655 19.2831 12.1655C19.3921 12.1655 19.4793 12.2091 19.5447 12.2963L29.1586 24.4184C29.3548 24.6365 29.551 24.8763 29.7254 25.1379C30.423 26.228 30.6628 27.3835 30.4012 28.5391C30.0524 29.9998 28.9406 31.308 27.153 32.3327C24.973 33.5754 22.1389 34.2077 19.2831 34.2077H19.2613ZM19.2613 13.0376L9.75636 25.0071C8.90615 26.01 8.55734 27.1001 8.75354 28.1684C8.99335 29.5202 10.0398 30.7847 11.7402 31.7658C15.904 34.1641 22.6621 34.1641 26.826 31.7658C28.4392 30.8283 29.4638 29.651 29.769 28.3865C29.987 27.4272 29.7908 26.446 29.2022 25.5304V25.4867C29.0278 25.2469 28.8534 25.0289 28.679 24.8327L19.3049 13.0158L19.2613 13.0376Z" fill="#1F1F1F"/>
<path d="M34.1054 24.07C30.5083 21.977 28.8951 18.9683 29.7889 16.0032L29.8543 15.7852L30.8789 16.0904L30.8135 16.3084C30.0723 18.7721 31.5111 21.3229 34.6504 23.1325L34.8466 23.2416L34.3016 24.1791L34.1054 24.07Z" fill="#1F1F1F"/>
<path d="M34.2138 23.8739C30.7039 21.8463 29.1343 18.9248 29.9845 16.0469L30.5949 16.2431C29.8101 18.8158 31.2925 21.4539 34.519 23.3289L34.192 23.8957L34.2138 23.8739Z" fill="#1F1F1F"/>
<path d="M44.789 26.6207C44.1132 26.6207 43.4156 26.5989 42.718 26.5335H42.5L42.5872 25.4434H42.8052C43.4592 25.5088 44.135 25.5306 44.789 25.5306C48.5823 25.5306 52.1575 24.6803 54.8608 23.1106C58 21.301 59.4388 18.7501 58.6976 16.2864L58.6322 16.0684L59.6568 15.7632L59.7222 15.9812C60.616 18.9681 59.0028 21.9768 55.4058 24.0481C52.5499 25.705 48.7785 26.5989 44.789 26.5989V26.6207Z" fill="#1F1F1F"/>
<path d="M44.7895 26.4027C44.1137 26.4027 43.4378 26.3809 42.7402 26.3155L42.7838 25.6833C47.2965 26.0321 51.7438 25.1818 54.9484 23.3286C58.1748 21.4536 59.6573 18.8155 58.8725 16.2429L59.4829 16.0466C60.3549 18.9245 58.7635 21.846 55.2536 23.8737C52.4196 25.5088 48.6699 26.4027 44.7459 26.4027H44.7895Z" fill="#1F1F1F"/>
<path d="M27.6973 21.388L27.7627 21.1918C28.3513 19.4258 29.0271 17.6598 29.7901 15.9374L29.8773 15.7412L30.8583 16.1773L30.7711 16.3735C30.0299 18.0305 29.3541 19.7746 28.7873 21.5188L28.7219 21.715L27.6973 21.388Z" fill="#1F1F1F"/>
<path d="M28.5909 21.4534L27.9805 21.2572C28.5691 19.4912 29.2449 17.7252 30.0079 16.0247L30.5965 16.2863C29.8335 17.9651 29.1795 19.7093 28.5909 21.4534Z" fill="#1F1F1F"/>
<path d="M63.4924 43.5392V38.0014C63.4924 30.6976 61.8792 23.2194 58.8489 16.3735L58.7617 16.1773L59.7427 15.7412L59.8299 15.9374C62.9256 22.9142 64.5606 30.545 64.5606 38.0014V43.5392H63.4706H63.4924Z" fill="#1F1F1F"/>
<path d="M64.3427 43.3212H63.6887V38.0014C63.6887 30.6758 62.0755 23.154 59.0234 16.2863L59.612 16.0247C62.6859 22.9796 64.3209 30.5668 64.3209 38.0014V43.3212H64.3427Z" fill="#1F1F1F"/>
<path d="M29.7227 16.1337L29.8099 15.9375C30.0279 15.4142 30.2895 14.9128 30.5293 14.4113C31.3359 12.7326 39.8598 0 44.7431 0C49.6263 0 58.1502 12.7326 58.9786 14.4113C59.2838 14.891 59.5455 15.436 59.7199 16.0029L59.7853 16.2209L58.7606 16.5262L58.6952 16.3299C58.5644 15.8721 58.3464 15.4142 58.0412 14.9564C57.1474 13.1468 48.7107 1.09012 44.7649 1.09012C40.819 1.09012 32.3823 13.125 31.5103 14.891C31.2705 15.3924 31.0307 15.8939 30.8127 16.3953L30.7255 16.5916L29.7445 16.1555L29.7227 16.1337Z" fill="#1F1F1F"/>
<path d="M30.5945 16.2862L30.0059 16.0245C30.2239 15.5231 30.4637 14.9998 30.7253 14.4984C31.5101 12.9068 40.0558 0.196045 44.7647 0.196045C49.4735 0.196045 58.0192 12.9068 58.804 14.4984C59.1093 14.978 59.3708 15.5013 59.5235 16.0463L58.913 16.2426C58.7604 15.7629 58.5424 15.2833 58.2372 14.8254C57.2998 12.9286 48.9067 0.850115 44.7647 0.850115C40.6226 0.850115 32.2295 12.9068 31.3139 14.7818C31.0741 15.2833 30.8343 15.7847 30.6163 16.2862H30.5945Z" fill="#1F1F1F"/>
<path d="M67.5491 150C64.5189 150 61.5104 149.346 59.2214 148.016C56.9324 146.686 55.668 144.92 55.668 143.023C55.668 142.325 55.9296 141.432 56.431 140.363L57.0196 140.647C56.5618 141.628 56.322 142.435 56.322 143.023C56.322 144.68 57.4774 146.272 59.5484 147.471C63.9739 150.022 71.168 150.022 75.5716 147.471C77.6427 146.272 78.7981 144.702 78.7981 143.023C78.7981 142.435 78.5583 141.606 78.1005 140.647L78.6891 140.363C79.1905 141.432 79.4521 142.325 79.4521 143.023C79.4521 144.92 78.1877 146.708 75.8986 148.016C73.6096 149.346 70.5794 150 67.5709 150H67.5491Z" fill="#1F1F1F"/>
<path d="M67.5724 144.244C65.2616 144.244 62.9725 143.873 60.8143 143.132C56.4324 141.627 53.8164 138.968 53.8164 136.002V130.726H54.9064V136.002C54.9064 138.488 57.239 140.777 61.1631 142.107C63.2123 142.805 65.3706 143.175 67.5724 143.175C69.7742 143.175 71.9324 142.827 73.9817 142.107C77.9057 140.755 80.2384 138.466 80.2384 136.002V130.726H81.3284V136.002C81.3284 138.968 78.7123 141.627 74.3305 143.132C72.1723 143.873 69.8832 144.244 67.5724 144.244Z" fill="#1F1F1F"/>
<path d="M67.5731 144.026C65.3059 144.026 63.0387 143.655 60.8805 142.914C56.5858 141.453 54.0352 138.859 54.0352 135.981V130.923H54.6892V135.981C54.6892 138.554 57.0872 140.93 61.0985 142.304C65.2841 143.743 69.8622 143.743 74.0478 142.304C78.0591 140.93 80.4571 138.554 80.4571 135.981V130.923H81.1111V135.981C81.1111 138.859 78.5605 141.432 74.2658 142.914C72.1076 143.655 69.8404 144.026 67.5731 144.026Z" fill="#1F1F1F"/>
<path d="M67.5481 139.164C63.8856 139.164 60.4194 138.336 57.8251 136.853C54.9693 135.196 54.1409 133.147 53.9447 131.708C53.7049 129.811 54.4461 127.827 55.9939 126.301L56.1465 126.148L56.9095 126.911L56.7569 127.064C55.4489 128.35 54.8167 130.007 55.0129 131.555C55.2309 133.256 56.3863 134.76 58.3483 135.894C60.79 137.311 64.06 138.074 67.5263 138.074C70.9925 138.074 74.2625 137.289 76.7042 135.894C78.8624 134.651 80.105 133.081 80.2794 131.402C80.432 129.898 79.7126 128.35 78.2302 126.998L78.0776 126.846L78.797 126.039L78.9496 126.192C80.6936 127.761 81.5438 129.658 81.3476 131.511C81.1296 133.561 79.7126 135.392 77.2274 136.831C74.6332 138.336 71.1887 139.142 67.5045 139.142L67.5481 139.164Z" fill="#1F1F1F"/>
<path d="M67.5479 138.946C64.0598 138.946 60.5936 138.183 57.9339 136.657C55.1435 135.044 54.3587 133.06 54.1625 131.686C53.9227 129.855 54.6421 127.936 56.1463 126.454L56.6041 126.911C55.2525 128.263 54.5985 129.964 54.7947 131.599C55.0345 133.387 56.2117 134.935 58.2392 136.112C63.3622 139.077 71.6899 139.077 76.813 136.112C79.0366 134.826 80.3229 133.212 80.4973 131.446C80.6717 129.877 79.9086 128.241 78.3826 126.868L78.8186 126.388C80.5191 127.914 81.3257 129.746 81.1513 131.512C80.9333 133.496 79.5598 135.262 77.14 136.657C74.4804 138.183 71.0141 138.946 67.5261 138.946H67.5479Z" fill="#1F1F1F"/>
<path d="M57.172 55.988H56.082V66.7366H57.172V55.988Z" fill="#1F1F1F"/>
<path d="M56.9548 56.2061H56.3008V66.5185H56.9548V56.2061Z" fill="#1F1F1F"/>
<path d="M67.9845 137.398C66.6111 137.398 65.2376 137.224 63.886 136.919C59.1118 135.763 56.3867 133.408 56.3867 130.421V124.273H57.4767V130.421C57.4767 132.863 59.9184 134.847 64.1476 135.872C65.412 136.177 66.6983 136.33 67.9845 136.33C70.0119 136.33 72.0175 135.937 73.8051 135.196C76.77 133.953 78.3614 132.253 78.296 130.421V55.3342H79.386V130.4C79.4514 132.689 77.6202 134.76 74.2194 136.177C72.3227 136.984 70.1645 137.398 67.9845 137.398Z" fill="#1F1F1F"/>
<path d="M67.9849 137.18C66.6333 137.18 65.2817 137.028 63.9519 136.7C59.2866 135.589 56.627 133.278 56.627 130.421V124.491H57.281V130.421C57.281 132.972 59.7662 135.044 64.1263 136.09C67.4617 136.897 70.9497 136.657 73.9146 135.392C76.9666 134.106 78.6016 132.34 78.5362 130.421V55.5522H79.1903V130.4C79.2557 132.602 77.468 134.586 74.1544 135.981C72.2578 136.788 70.1431 137.18 68.0067 137.18H67.9849Z" fill="#1F1F1F"/>
<path d="M67.5496 62.6378C65.9146 62.6378 64.2796 62.3979 62.6882 61.9401C59.2655 60.9372 56.9329 59.1276 56.3007 56.9474C55.8647 55.4648 56.2353 53.9168 57.3689 52.5869L67.1354 40.3122C67.2444 40.1814 67.397 40.116 67.5496 40.116C67.7022 40.116 67.8766 40.1814 67.9638 40.3122L77.5778 52.4343C77.774 52.6305 77.9702 52.8921 78.1446 53.1538C79.1038 54.3747 79.409 55.7264 78.973 57.0564C78.2972 59.1712 75.8337 60.9808 72.2149 62.0055C70.6889 62.4415 69.1193 62.6596 67.5278 62.6596L67.5496 62.6378ZM58.1973 53.2628C57.2817 54.3311 56.9765 55.4866 57.3253 56.6421C57.8703 58.4517 59.9195 59.9997 62.9934 60.8936C64.4758 61.3296 66.0018 61.5476 67.5496 61.5476C69.0974 61.5476 70.5145 61.3514 71.9315 60.9372C75.1797 60.0215 77.3816 58.4735 77.9484 56.7075C78.2536 55.7264 78.0356 54.7235 77.2944 53.8078C77.0982 53.5026 76.9238 53.3064 76.7494 53.1102L67.5278 41.4895L58.1755 53.2628H58.1973Z" fill="#1F1F1F"/>
<path d="M67.5504 62.4196C65.9372 62.4196 64.3239 62.1798 62.7543 61.722C59.3971 60.7409 57.1298 58.9749 56.4976 56.8819C56.0834 55.4647 56.454 53.9821 57.5222 52.7176L67.2888 40.4211C67.2888 40.4211 67.4414 40.2903 67.5504 40.2903C67.6594 40.2903 67.7466 40.3339 67.812 40.4211L77.4259 52.5432C77.6221 52.7612 77.8183 53.001 77.9927 53.2627C78.9301 54.4618 79.1917 55.7263 78.7993 56.9691C78.1453 59.0185 75.7255 60.7627 72.1938 61.7656C70.6896 62.2016 69.12 62.3978 67.5722 62.3978L67.5504 62.4196ZM67.5504 41.1406L58.0454 53.1101C57.0862 54.2438 56.781 55.4647 57.1298 56.6856C57.6966 58.5606 59.8113 60.174 62.9505 61.0897C65.9154 61.9618 69.0546 61.9836 72.0194 61.1333C75.3331 60.1958 77.5785 58.6042 78.1889 56.751C78.5159 55.7045 78.2761 54.6362 77.4913 53.6333C77.4913 53.6333 77.4695 53.5897 77.4477 53.5679C77.2733 53.3281 77.1207 53.1101 76.9245 52.9138L67.5504 41.097V41.1406Z" fill="#1F1F1F"/>
<path d="M37.9433 122.332C34.477 122.332 31.1198 121.635 28.5037 120.348L28.1113 120.152L28.7871 118.8L28.9833 118.888C31.5994 120.174 34.7168 120.828 37.9433 120.828C41.5839 120.828 44.9848 120.021 47.5136 118.561L47.7098 118.452L48.015 118.539L48.669 119.651L48.2984 119.869C45.5516 121.46 41.8673 122.332 37.9651 122.332H37.9433Z" fill="#1F1F1F"/>
<path d="M37.9427 122.115C34.5201 122.115 31.1847 121.417 28.6122 120.153L28.416 120.065L28.8956 119.084L29.0918 119.171C31.5335 120.371 34.6945 121.046 37.9645 121.046C41.6488 121.046 45.0932 120.24 47.6439 118.757L47.8401 118.648L48.3851 119.586L48.1889 119.695C45.4638 121.264 41.845 122.137 37.9645 122.137L37.9427 122.115Z" fill="#1F1F1F"/>
<path d="M37.9427 122.115C34.5201 122.115 31.1847 121.417 28.6122 120.153L28.416 120.065L28.8956 119.084L29.0918 119.171C31.5335 120.371 34.6945 121.046 37.9645 121.046C41.6488 121.046 45.0932 120.24 47.6439 118.757L47.8401 118.648L48.3851 119.586L48.1889 119.695C45.4638 121.264 41.845 122.137 37.9645 122.137L37.9427 122.115Z" fill="#1F1F1F"/>
<path d="M37.9425 121.897C34.6507 121.897 31.3589 121.242 28.6992 119.956L28.9826 119.367C34.4327 122.049 42.6732 121.853 47.7309 118.931L48.0579 119.498C45.2892 121.09 41.6268 121.897 37.9425 121.897Z" fill="#1F1F1F"/>
<path d="M23.3398 94.6438V42.8415C23.3398 39.5712 24.4299 36.3444 26.4355 33.7499L37.6844 19.1206C37.8152 18.9462 38.055 18.8372 38.2948 18.8372C38.5346 18.8372 38.7527 18.9462 38.9053 19.1206L50.1542 33.7499C52.138 36.3444 53.2498 39.5712 53.2498 42.8415V54.0479H51.7238V42.8415C51.7238 39.8982 50.7428 36.9985 48.9552 34.6656L38.3166 20.8212L27.6781 34.6656C25.8905 36.9985 24.9095 39.8982 24.9095 42.8415V94.6438H23.3834H23.3398Z" fill="#1F1F1F"/>
<path d="M23.5586 94.4258V42.8415C23.5586 39.6148 24.6486 36.4316 26.6106 33.8808L37.8596 19.2514C37.9686 19.1206 38.1212 19.0552 38.2956 19.0552C38.47 19.0552 38.6226 19.1206 38.7316 19.2514L49.9805 33.8808C51.9426 36.4316 53.0326 39.6148 53.0326 42.8415V53.8299H51.9426V42.8415C51.9426 39.8546 50.9398 36.9113 49.1303 34.5348L38.3174 20.4505L27.5044 34.5348C25.695 36.9113 24.6922 39.8546 24.6922 42.8415V94.4258H23.6022H23.5586Z" fill="#1F1F1F"/>
<path d="M70.9287 130.639L70.3401 129.506L70.8415 129.244C71.4301 128.939 73.5665 127.805 74.4604 127.26C75.485 126.65 75.9428 125.167 75.703 123.183C73.9371 108.706 67.8985 95.9738 62.0778 83.6554C57.4343 73.8226 53.0307 64.513 51.4392 55.3996L48.0166 57.2964L47.2754 55.9665L51.7009 53.5028C51.7009 53.5028 51.9625 53.4592 51.9843 53.4592C52.1369 53.4592 52.2241 53.481 52.3331 53.5246C52.5511 53.6336 52.7037 53.8517 52.7473 54.0915C54.1425 63.3357 58.6551 72.8633 63.4294 82.9578C69.3155 95.3851 75.376 108.248 77.1854 122.965C77.5124 125.56 76.793 127.587 75.2016 128.525C74.1334 129.157 71.5173 130.53 71.4083 130.596L71.2121 130.705L70.9287 130.618V130.639Z" fill="#1F1F1F"/>
<path d="M70.6233 129.593L70.8195 129.484C71.1683 129.288 73.5881 128.023 74.5474 127.435C75.6592 126.78 76.1606 125.211 75.899 123.139C74.1114 108.619 68.0945 95.8865 62.252 83.5464C57.5649 73.6046 53.1177 64.2514 51.5698 55.0508L48.0818 56.9912L47.5586 56.0537L51.7661 53.7208L51.9841 53.6772C51.9841 53.6772 52.1585 53.6772 52.2239 53.7427C52.3765 53.8299 52.4855 53.9825 52.5291 54.1569C53.9243 63.4229 58.4369 72.9941 63.233 83.1104C69.0973 95.5377 75.1796 108.357 76.9672 123.052C77.2724 125.56 76.5966 127.5 75.0924 128.394C74.0459 129.026 71.4081 130.4 71.2991 130.465L71.1029 130.574L70.6015 129.615L70.6233 129.593Z" fill="#1F1F1F"/>
<path d="M69.1843 131.272C68.2251 131.272 67.2223 130.967 66.1759 130.356L47.5366 119.608C47.2968 119.477 47.166 119.215 47.166 118.954V56.4245C47.166 56.032 47.4712 55.705 47.8636 55.6614C48.2778 55.6614 48.6048 55.923 48.6702 56.2936C50.0655 65.5378 54.5781 75.0654 59.3306 85.1599C65.2167 97.609 71.2989 110.472 73.0866 125.189C73.3918 127.696 72.716 129.68 71.2553 130.661C70.6449 131.076 69.9473 131.272 69.1625 131.272H69.1843ZM66.9389 129.048C67.7455 129.528 68.5085 129.767 69.1843 129.767C69.6639 129.767 70.0781 129.637 70.4269 129.419C71.4079 128.765 71.8221 127.304 71.6041 125.385C69.8383 110.908 63.7996 98.1759 57.979 85.8576C54.2729 78.0306 50.7631 70.596 48.6702 63.314V118.517L66.9171 129.048H66.9389Z" fill="#1F1F1F"/>
<path d="M69.1851 131.054C68.2694 131.054 67.2884 130.749 66.2856 130.182L47.6464 119.433C47.472 119.346 47.3848 119.15 47.3848 118.975V56.4245C47.3848 56.141 47.6028 55.9012 47.8862 55.8794C48.1914 55.8794 48.4094 56.0756 48.453 56.3372C49.8482 65.6032 54.3609 75.1527 59.1351 85.2689C65.0212 97.7181 71.0817 110.538 72.8911 125.233C73.1963 127.653 72.5641 129.571 71.1471 130.487C70.5803 130.858 69.9045 131.054 69.1851 131.054ZM66.8306 129.244C67.6808 129.724 68.4657 129.985 69.1851 129.985C69.7083 129.985 70.1661 129.855 70.5585 129.593C71.6049 128.895 72.0627 127.347 71.8229 125.363C70.0353 110.843 64.0184 98.1105 58.1759 85.7704C54.2301 77.3983 50.4804 69.484 48.453 61.7006V118.648L66.8088 129.244H66.8306Z" fill="#1F1F1F"/>
<path d="M8.90608 129.353C8.66627 129.222 8.51367 128.961 8.51367 128.677V124.731C8.51367 123.009 9.08048 121.09 10.1269 119.281L25.9975 91.8533C26.1283 91.6135 26.3899 91.4827 26.6515 91.4827L27.0221 91.5699L29.3548 92.8562L28.6135 94.1862L26.9349 93.2487L11.4349 120.022C10.5411 121.57 10.0179 123.292 10.0179 124.709V128.22L11.9581 129.288L11.2169 130.618L8.88428 129.332L8.90608 129.353Z" fill="#1F1F1F"/>
<path d="M9.01583 129.179C8.84142 129.092 8.73242 128.896 8.73242 128.699V124.753C8.73242 123.074 9.29923 121.178 10.3238 119.412L26.1945 91.9843C26.2817 91.8099 26.4779 91.7227 26.6523 91.7227H26.7177L26.9139 91.7881L29.0503 92.9654L28.5271 93.9029L26.8485 92.9654L11.2395 119.935C10.3238 121.526 9.80064 123.271 9.80064 124.731V128.351L11.6537 129.375L11.1305 130.313L8.99403 129.135L9.01583 129.179Z" fill="#1F1F1F"/>
<path d="M11.1527 130.531L10.8693 130.444C10.6077 130.291 10.4551 130.051 10.4551 129.768V125.822C10.4551 124.099 11.0219 122.181 12.0683 120.371L27.9389 92.9436C28.0697 92.7038 28.3313 92.573 28.5929 92.573C29.0943 92.682 29.3559 92.9654 29.3559 93.3361V119.739C29.3559 120 29.2033 120.262 28.9853 120.393L11.5451 130.465L11.2399 130.531H11.1527ZM13.3763 121.134C12.4825 122.682 11.9593 124.404 11.9593 125.822V128.46L27.9389 119.237L27.8299 96.1486L13.3545 121.134H13.3763Z" fill="#1F1F1F"/>
<path d="M11.1534 130.313L10.9354 130.248C10.7828 130.161 10.6738 129.986 10.6738 129.79V125.844C10.6738 124.165 11.2406 122.268 12.2652 120.502L28.1359 93.0749C28.2231 92.9004 28.4193 92.8132 28.5937 92.8132C28.9643 92.9004 29.1387 93.1185 29.1387 93.3583V119.761C29.1387 119.957 29.0297 120.132 28.8771 120.219L11.4368 130.291L11.2188 130.335H11.1534V130.313ZM13.2027 121.025C12.287 122.617 11.7638 124.361 11.7638 125.822V128.831L28.1795 119.347L28.0705 95.3205L13.2027 121.004V121.025Z" fill="#1F1F1F"/>
<path d="M29.3766 57.1875C28.8097 57.1875 28.2865 57.3183 27.8287 57.5799C26.7823 58.1904 26.1719 59.3895 26.1065 61.0247C25.9539 64.4913 28.3519 68.6337 31.4476 70.2253C32.8864 70.9884 34.2598 71.0538 35.3062 70.4651C36.3526 69.8546 36.963 68.6337 37.0285 67.0204C37.1811 63.5538 34.783 59.4113 31.6874 57.8198C30.8808 57.4055 30.096 57.1875 29.3766 57.1875Z" fill="#1F1F1F"/>
<path d="M6.20292 95.0583C2.34427 92.8345 -0.511573 87.3185 0.0770354 83.2414C1.88646 70.5307 7.99054 64.6659 13.8984 58.9973C17.0159 55.9885 19.9589 53.176 22.0081 49.4914L22.1171 49.2952L22.4223 49.208L23.556 49.8403L23.3379 50.2109C21.1797 54.1135 18.1713 56.9914 14.9884 60.0656C9.25496 65.5816 3.32528 71.2502 1.60306 83.4595C1.10165 86.926 3.67409 91.8316 6.98773 93.7502L20.6783 101.643L19.9153 102.951L6.22472 95.0583H6.20292Z" fill="#1F1F1F"/>
<path d="M6.3122 94.8622C2.54075 92.682 -0.29329 87.2532 0.273517 83.2634C2.08294 70.618 8.16522 64.775 14.0295 59.15C17.1687 56.1413 20.1118 53.307 22.161 49.5788L22.27 49.3826L23.2074 49.9058L23.0984 50.102C20.962 53.9829 17.9536 56.8608 14.7707 59.9131C9.01543 65.4291 3.08576 71.1413 1.34173 83.416C0.840325 86.9698 3.45636 91.9625 6.8354 93.9247L20.3298 101.708L19.7848 102.646L6.2904 94.8622H6.3122Z" fill="#1F1F1F"/>
</svg>
