<svg width="115" height="212" viewBox="0 0 115 212" fill="none" xmlns="http://www.w3.org/2000/svg">
<path d="M67.0651 47.5238C66.9118 47.2171 66.7584 46.9103 66.5744 46.6036C66.329 46.1435 66.0836 45.714 65.8076 45.2539C66.053 47.2784 64.8874 49.3336 62.219 50.8673C57.3422 53.6894 49.4596 53.6894 44.5828 50.8673C41.9144 49.3336 40.7489 47.2784 40.9942 45.2539C40.7489 45.6833 40.4728 46.1435 40.2274 46.6036C40.0741 46.9103 39.89 47.2171 39.7367 47.5238C38.6018 50.1925 39.8287 53.1373 43.448 55.2231C48.9382 58.4133 57.8636 58.4133 63.3538 55.2231C66.9731 53.1373 68.2 50.1925 67.0651 47.5238Z" fill="#FBF9F3"/>
<path d="M15.353 169.21C12.1325 167.339 10.3535 164.854 10.3535 162.186C10.3535 161.266 10.6909 160.069 11.335 158.658L12.1631 159.026C11.5804 160.315 11.2737 161.419 11.2737 162.186C11.2737 164.517 12.8993 166.756 15.8131 168.443L15.353 169.241V169.21Z" fill="#FBF9F3"/>
<path d="M18.9412 162.799C16.9476 162.278 15.506 161.695 13.635 160.621C9.83177 158.443 7.74609 155.468 7.74609 152.278V145.438H9.27968V152.278C9.27968 154.885 11.0893 157.401 14.4018 159.302C16.1501 160.315 17.4383 160.836 19.3093 161.327L19.616 161.388L19.248 162.861L18.9412 162.769V162.799Z" fill="#FBF9F3"/>
<path d="M19.0338 162.492C17.0708 162.002 15.6599 161.419 13.8196 160.345C10.1083 158.198 8.08398 155.345 8.08398 152.278V145.744H9.00413V152.278C9.00413 155.008 10.8751 157.584 14.2797 159.548C16.0586 160.591 17.3775 161.112 19.2791 161.603L19.0644 162.492H19.0338Z" fill="#FBF9F3"/>
<path d="M22.8368 156.511C19.2482 156.112 16.273 155.131 13.4206 153.505C10.2614 151.695 8.39042 149.272 7.99169 146.542C7.59296 143.842 8.66646 141.02 10.9975 138.566L11.2122 138.352L12.3164 139.394L12.1017 139.609C10.108 141.726 9.18788 144.118 9.4946 146.327C9.83199 148.597 11.4269 150.621 14.1567 152.216C16.8251 153.75 19.6162 154.64 22.9901 155.038H23.2968L23.1128 156.572H22.8061L22.8368 156.511Z" fill="#FBF9F3"/>
<path d="M22.8675 156.204C19.3403 155.805 16.3958 154.854 13.574 153.228C10.5069 151.449 8.69725 149.118 8.29851 146.48C7.93046 143.873 8.94262 141.143 11.2123 138.75L11.8564 139.363C9.80142 141.541 8.8506 144.026 9.18799 146.357C9.52538 148.719 11.2123 150.836 14.0034 152.462C16.7025 154.026 19.555 154.915 22.9596 155.314L22.8675 156.204Z" fill="#FBF9F3"/>
<path d="M12.4086 39.3955H10.875V89.855H12.4086V39.3955Z" fill="#FBF9F3"/>
<path d="M12.1018 39.7021H11.1816V89.5482H12.1018V39.7021Z" fill="#FBF9F3"/>
<path d="M25.0142 153.504C21.671 153.197 18.6652 152.308 16.2421 150.927C13.0216 149.056 11.2426 146.418 11.3653 143.658V136.388H12.8682V143.688C12.7762 145.897 14.2791 148.044 16.9782 149.608C19.1866 150.897 22.0084 151.725 25.1369 152.001H25.4436L25.2902 153.535H24.9835L25.0142 153.504Z" fill="#FBF9F3"/>
<path d="M25.045 153.198C21.7631 152.891 18.7573 152.032 16.3956 150.652C13.2671 148.842 11.5495 146.296 11.6722 143.658V136.664H12.5616V143.658C12.4696 145.958 14.0032 148.228 16.825 149.854C19.064 151.142 21.9472 152.001 25.1063 152.277L25.0143 153.167L25.045 153.198Z" fill="#FBF9F3"/>
<path d="M27.0999 48.9351C22.8672 48.9351 18.8799 47.9842 15.874 46.2357C13.1749 44.6713 11.488 42.5854 11.0893 40.3155C10.7519 38.4137 11.3346 36.5426 12.7762 34.8861L26.5171 17.6164C26.6704 17.4324 26.8852 17.3403 27.0999 17.3403C27.3146 17.3403 27.5599 17.4324 27.6826 17.6164L41.2088 34.6714C41.4849 34.9475 41.7609 35.3156 42.0063 35.6837C43.0798 37.3094 43.4172 38.9965 43.0184 40.6836C42.5277 42.8308 40.9021 44.7327 38.3257 46.205C35.3199 47.9228 31.3325 48.9044 27.0999 48.9044V48.9351ZM13.9417 35.8677C12.8069 37.1867 12.3468 38.6591 12.5922 40.0701C12.8989 41.8799 14.3404 43.5977 16.6408 44.9167C19.4319 46.5425 23.1432 47.4013 27.0999 47.4013C31.0565 47.4013 34.7678 46.5118 37.5589 44.9167C39.7672 43.659 41.1475 42.064 41.5462 40.3462C41.8529 39.0886 41.5769 37.7695 40.7794 36.5732C40.534 36.2052 40.3193 35.9291 40.074 35.653L27.0999 19.3035L13.9417 35.8677Z" fill="#FBF9F3"/>
<path d="M27.1007 48.6281C23.0827 48.6281 19.0954 47.7386 16.0282 45.9901C13.4211 44.4871 11.7648 42.4626 11.3968 40.2847C11.0901 38.4749 11.6422 36.6957 13.0224 35.1007L26.7633 17.8003C26.7633 17.8003 26.978 17.6162 27.1313 17.6162C27.2847 17.6162 27.4074 17.6776 27.4994 17.8003L41.0256 34.8553C41.3016 35.162 41.5777 35.4994 41.8231 35.8675C42.8046 37.4013 43.1419 39.027 42.7739 40.6528C42.2831 42.708 40.7189 44.5484 38.2038 45.9901C35.1366 47.7386 31.1493 48.6281 27.1313 48.6281H27.1007ZM27.1007 18.8432L13.7278 35.6835C12.5316 37.0945 12.0409 38.6282 12.3169 40.1313C12.6543 42.0331 14.1266 43.8122 16.5189 45.1926C22.3772 48.5668 31.8854 48.5668 37.7437 45.1926C40.0134 43.8736 41.455 42.2172 41.8844 40.438C42.1911 39.0884 41.9151 37.708 41.0869 36.4197V36.3583C40.8416 36.0209 40.5962 35.7142 40.3508 35.4381L27.162 18.8125L27.1007 18.8432Z" fill="#FBF9F3"/>
<path d="M47.9858 34.3648C42.925 31.4201 40.6553 27.187 41.9128 23.0152L42.0048 22.7085L43.4464 23.1379L43.3544 23.4447C42.3115 26.9109 44.3359 30.4998 48.7526 33.0458L49.0286 33.1992L48.2618 34.5182L47.9858 34.3648Z" fill="#FBF9F3"/>
<path d="M48.1384 34.0888C43.2003 31.2361 40.9919 27.1257 42.1881 23.0767L43.0469 23.3527C41.9427 26.9723 44.0284 30.6839 48.5678 33.3219L48.1077 34.1195L48.1384 34.0888Z" fill="#FBF9F3"/>
<path d="M63.0154 37.9536C62.0646 37.9536 61.0831 37.923 60.1016 37.8309H59.7949L59.9176 36.2972H60.2243C61.1445 36.3892 62.0953 36.4199 63.0154 36.4199C68.3523 36.4199 73.3825 35.2236 77.1857 33.015C81.6025 30.4691 83.6268 26.8801 82.584 23.4139L82.4919 23.1072L83.9335 22.6777L84.0255 22.9845C85.2831 27.1869 83.0134 31.42 77.9525 34.334C73.9345 36.6653 68.6284 37.923 63.0154 37.923V37.9536Z" fill="#FBF9F3"/>
<path d="M63.0159 37.647C62.0651 37.647 61.1143 37.6164 60.1328 37.5243L60.1942 36.6348C66.5432 37.1256 72.8002 35.9293 77.3089 33.3219C81.8483 30.6839 83.934 26.9723 82.8298 23.3527L83.6886 23.0767C84.9155 27.1257 82.6765 31.2361 77.7383 34.0888C73.751 36.3894 68.4755 37.647 62.9546 37.647H63.0159Z" fill="#FBF9F3"/>
<path d="M38.9688 30.5917L39.0608 30.3156C39.8889 27.831 40.8397 25.3463 41.9132 22.923L42.0359 22.647L43.4161 23.2605L43.2935 23.5365C42.2506 25.8678 41.2998 28.3218 40.5023 30.7757L40.4103 31.0518L38.9688 30.5917Z" fill="#FBF9F3"/>
<path d="M40.226 30.6838L39.3672 30.4078C40.1953 27.9231 41.1461 25.4385 42.2197 23.0459L43.0478 23.414C41.9743 25.7759 41.0541 28.2299 40.226 30.6838Z" fill="#FBF9F3"/>
<path d="M89.3315 61.757V53.9656C89.3315 43.6897 87.0618 33.1683 82.7985 23.5365L82.6758 23.2605L84.056 22.647L84.1787 22.923C88.5341 32.7389 90.8344 43.475 90.8344 53.9656V61.757H89.3009H89.3315Z" fill="#FBF9F3"/>
<path d="M90.5269 61.4504H89.6067V53.9658C89.6067 43.6592 87.337 33.0765 83.043 23.414L83.8711 23.0459C88.1958 32.8311 90.4962 43.5058 90.4962 53.9658V61.4504H90.5269Z" fill="#FBF9F3"/>
<path d="M41.8203 23.1991L41.943 22.9231C42.2497 22.1869 42.6178 21.4814 42.9552 20.7758C44.09 18.4139 56.0826 0.5 62.9531 0.5C69.8235 0.5 81.8161 18.4139 82.9817 20.7758C83.4111 21.4507 83.7791 22.2175 84.0245 23.0151L84.1165 23.3218L82.6749 23.7513L82.5829 23.4752C82.3989 22.831 82.0922 22.1869 81.6628 21.5427C80.4052 18.9967 68.5353 2.03372 62.9837 2.03372C57.4322 2.03372 45.5623 18.966 44.3354 21.4507C43.998 22.1562 43.6606 22.8617 43.3539 23.5672L43.2312 23.8433L41.851 23.2298L41.8203 23.1991Z" fill="#FBF9F3"/>
<path d="M43.0469 23.4137L42.2188 23.0456C42.5255 22.3401 42.8629 21.6039 43.2309 20.8983C44.3351 18.6591 56.3584 0.775879 62.9835 0.775879C69.6085 0.775879 81.6318 18.6591 82.736 20.8983C83.1654 21.5732 83.5334 22.3094 83.7481 23.0762L82.8893 23.3523C82.6746 22.6775 82.3679 22.0026 81.9385 21.3585C80.6196 18.6898 68.8111 1.69611 62.9835 1.69611C57.1558 1.69611 45.3473 18.6591 44.059 21.2971C43.7217 22.0026 43.3843 22.7081 43.0776 23.4137H43.0469Z" fill="#FBF9F3"/>
<path d="M95.0383 211.541C90.775 211.541 86.5423 210.62 83.3217 208.749C80.1012 206.878 78.3223 204.393 78.3223 201.725C78.3223 200.743 78.6903 199.485 79.3958 197.982L80.2239 198.381C79.5798 199.762 79.2424 200.897 79.2424 201.725C79.2424 204.056 80.868 206.295 83.7818 207.982C90.0082 211.571 100.13 211.571 106.325 207.982C109.239 206.295 110.865 204.087 110.865 201.725C110.865 200.897 110.527 199.731 109.883 198.381L110.712 197.982C111.417 199.485 111.785 200.743 111.785 201.725C111.785 204.393 110.006 206.909 106.786 208.749C103.565 210.62 99.3017 211.541 95.069 211.541H95.0383Z" fill="#FBF9F3"/>
<path d="M95.0687 203.442C91.8175 203.442 88.5969 202.921 85.5604 201.878C79.3954 199.761 75.7148 196.019 75.7148 191.847V184.424H77.2484V191.847C77.2484 195.344 80.5303 198.565 86.0512 200.436C88.9343 201.418 91.9708 201.939 95.0687 201.939C98.1665 201.939 101.203 201.448 104.086 200.436C109.607 198.534 112.889 195.313 112.889 191.847V184.424H114.422V191.847C114.422 196.019 110.742 199.761 104.577 201.878C101.54 202.921 98.3198 203.442 95.0687 203.442Z" fill="#FBF9F3"/>
<path d="M95.0686 203.136C91.8787 203.136 88.6889 202.614 85.6524 201.571C79.6101 199.516 76.0215 195.866 76.0215 191.817V184.7H76.9416V191.817C76.9416 195.436 80.3155 198.78 85.9591 200.712C91.8481 202.737 98.2891 202.737 104.178 200.712C109.822 198.78 113.196 195.436 113.196 191.817V184.7H114.116V191.817C114.116 195.866 110.527 199.485 104.485 201.571C101.448 202.614 98.2584 203.136 95.0686 203.136Z" fill="#FBF9F3"/>
<path d="M95.0373 196.295C89.8845 196.295 85.0077 195.13 81.3578 193.044C77.3398 190.712 76.1743 187.829 75.8982 185.804C75.5609 183.136 76.6037 180.344 78.7814 178.197L78.9961 177.982L80.0696 179.056L79.8549 179.271C78.0146 181.081 77.1251 183.412 77.4012 185.59C77.7079 187.982 79.3335 190.099 82.0939 191.694C85.5291 193.688 90.1299 194.761 95.0067 194.761C99.8835 194.761 104.484 193.657 107.919 191.694C110.956 189.946 112.704 187.737 112.95 185.375C113.164 183.258 112.152 181.081 110.066 179.179L109.852 178.964L110.864 177.829L111.079 178.044C113.532 180.252 114.729 182.921 114.452 185.528C114.146 188.412 112.152 190.988 108.656 193.013C105.006 195.13 100.16 196.264 94.976 196.264L95.0373 196.295Z" fill="#FBF9F3"/>
<path d="M95.0368 195.989C90.1293 195.989 85.2525 194.915 81.5106 192.768C77.5846 190.498 76.4804 187.707 76.2044 185.774C75.867 183.198 76.8791 180.498 78.9955 178.412L79.6396 179.056C77.738 180.958 76.8178 183.351 77.0939 185.652C77.4312 188.167 79.0875 190.345 81.94 192.001C89.1478 196.173 100.864 196.173 108.072 192.001C111.201 190.191 113.01 187.921 113.256 185.437C113.501 183.228 112.428 180.928 110.281 178.995L110.894 178.32C113.286 180.468 114.421 183.044 114.176 185.529C113.869 188.32 111.937 190.805 108.532 192.768C104.79 194.915 99.9136 195.989 95.0061 195.989H95.0368Z" fill="#FBF9F3"/>
<path d="M80.4379 79.272H78.9043V94.3945H80.4379V79.272Z" fill="#FBF9F3"/>
<path d="M80.1311 79.5786H79.2109V94.0876H80.1311V79.5786Z" fill="#FBF9F3"/>
<path d="M95.6513 193.81C93.719 193.81 91.7867 193.565 89.885 193.136C83.1679 191.51 79.334 188.197 79.334 183.995V175.344H80.8676V183.995C80.8676 187.43 84.3028 190.221 90.2531 191.663C92.032 192.093 93.8417 192.307 95.6513 192.307C98.5038 192.307 101.326 191.755 103.841 190.712C108.012 188.964 110.251 186.571 110.159 183.995V78.3516H111.693V183.964C111.785 187.185 109.208 190.099 104.423 192.093C101.755 193.228 98.7185 193.81 95.6513 193.81Z" fill="#FBF9F3"/>
<path d="M95.6518 193.504C93.7502 193.504 91.8485 193.289 89.9775 192.829C83.4138 191.264 79.6719 188.013 79.6719 183.994V175.651H80.592V183.994C80.592 187.583 84.0886 190.497 90.2229 191.97C94.9157 193.105 99.8231 192.767 103.994 190.988C108.289 189.178 110.589 186.694 110.497 183.994V78.6582H111.417V183.964C111.509 187.062 108.994 189.853 104.332 191.816C101.663 192.951 98.6883 193.504 95.6825 193.504H95.6518Z" fill="#FBF9F3"/>
<path d="M95.0374 88.6277C92.737 88.6277 90.4367 88.2903 88.1976 87.6461C83.3822 86.2351 80.1003 83.6891 79.2109 80.6216C78.5974 78.5358 79.1188 76.3579 80.7138 74.4867L94.4547 57.217C94.608 57.0329 94.8227 56.9409 95.0374 56.9409C95.2521 56.9409 95.4975 57.0329 95.6202 57.217L109.146 74.272C109.422 74.5481 109.698 74.9162 109.944 75.2843C111.293 77.002 111.723 78.9039 111.109 80.775C110.159 83.7504 106.693 86.2964 101.601 87.7381C99.4541 88.3516 97.2458 88.6583 95.0067 88.6583L95.0374 88.6277ZM81.8793 75.4376C80.5911 76.9407 80.1617 78.5664 80.6524 80.1922C81.4192 82.7382 84.3023 84.9161 88.627 86.1737C90.7127 86.7872 92.8597 87.0939 95.0374 87.0939C97.2151 87.0939 99.2088 86.8179 101.202 86.2351C105.772 84.9467 108.87 82.7688 109.668 80.2842C110.097 78.9039 109.79 77.4928 108.748 76.2045C108.472 75.7751 108.226 75.499 107.981 75.2229L95.0067 58.8734L81.8486 75.4376H81.8793Z" fill="#FBF9F3"/>
<path d="M95.0374 88.3211C92.7677 88.3211 90.498 87.9837 88.2896 87.3396C83.5662 85.9592 80.3764 83.4746 79.4869 80.5298C78.9041 78.536 79.4255 76.4501 80.9285 74.671L94.6694 57.3706C94.6694 57.3706 94.8841 57.1865 95.0374 57.1865C95.1908 57.1865 95.3134 57.2479 95.4055 57.3706L108.932 74.4256C109.208 74.7323 109.484 75.0698 109.729 75.4379C111.048 77.1249 111.416 78.9041 110.864 80.6525C109.944 83.5359 106.539 85.9899 101.57 87.4009C99.4541 88.0144 97.2458 88.2905 95.0681 88.2905L95.0374 88.3211ZM95.0374 58.3828L81.6646 75.2231C80.315 76.8182 79.8856 78.536 80.3764 80.2537C81.1738 82.8918 84.149 85.1617 88.5657 86.45C92.737 87.677 97.1537 87.7077 101.325 86.5113C105.987 85.1923 109.146 82.9531 110.005 80.3458C110.465 78.8734 110.128 77.3703 109.024 75.9593C109.024 75.9593 108.993 75.898 108.962 75.8673C108.717 75.5299 108.502 75.2231 108.226 74.9471L95.0374 58.3215V58.3828Z" fill="#FBF9F3"/>
<path d="M53.3856 172.614C48.5089 172.614 43.7854 171.633 40.1048 169.823L39.5527 169.547L40.5036 167.645L40.7796 167.768C44.4602 169.578 48.8462 170.498 53.3856 170.498C58.5078 170.498 63.2926 169.363 66.8505 167.308L67.1265 167.154L67.5559 167.277L68.4761 168.841L67.9547 169.148C64.09 171.387 58.9065 172.614 53.4163 172.614H53.3856Z" fill="#FBF9F3"/>
<path d="M53.3859 172.308C48.5705 172.308 43.8777 171.326 40.2585 169.547L39.9824 169.425L40.6572 168.044L40.9332 168.167C44.3685 169.854 48.8159 170.805 53.4166 170.805C58.6001 170.805 63.4462 169.67 67.0348 167.584L67.3109 167.431L68.0776 168.75L67.8016 168.903C63.9676 171.112 58.8762 172.339 53.4166 172.339L53.3859 172.308Z" fill="#FBF9F3"/>
<path d="M53.3859 172.308C48.5705 172.308 43.8777 171.326 40.2585 169.547L39.9824 169.425L40.6572 168.044L40.9332 168.167C44.3685 169.854 48.8159 170.805 53.4166 170.805C58.6001 170.805 63.4462 169.67 67.0348 167.584L67.3109 167.431L68.0776 168.75L67.8016 168.903C63.9676 171.112 58.8762 172.339 53.4166 172.339L53.3859 172.308Z" fill="#FBF9F3"/>
<path d="M53.3856 172.001C48.7542 172.001 44.1228 171.081 40.3809 169.271L40.7796 168.443C48.4475 172.216 60.0414 171.939 67.1572 167.829L67.6173 168.627C63.722 170.866 58.5691 172.001 53.3856 172.001Z" fill="#FBF9F3"/>
<path d="M32.8359 133.658V60.7756C32.8359 56.1744 34.3695 51.6346 37.1913 47.9843L53.0179 27.4017C53.2019 27.1563 53.5393 27.0029 53.8767 27.0029C54.2141 27.0029 54.5208 27.1563 54.7355 27.4017L70.5621 47.9843C73.3532 51.6346 74.9174 56.1744 74.9174 60.7756V76.5422H72.7704V60.7756C72.7704 56.6345 71.3902 52.5548 68.8751 49.2726L53.9074 29.7943L38.9396 49.2726C36.4245 52.5548 35.0443 56.6345 35.0443 60.7756V133.658H32.8973H32.8359Z" fill="#FBF9F3"/>
<path d="M33.1426 133.351V60.7754C33.1426 56.2356 34.6762 51.7571 37.4366 48.1682L53.2632 27.5856C53.4165 27.4016 53.6312 27.3096 53.8766 27.3096C54.122 27.3096 54.3367 27.4016 54.49 27.5856L70.3166 48.1682C73.0771 51.7571 74.6106 56.2356 74.6106 60.7754V76.2354H73.0771V60.7754C73.0771 56.573 71.6662 52.432 69.1204 49.0885L53.9073 29.2727L38.6941 49.0885C36.1484 52.432 34.7375 56.573 34.7375 60.7754V133.351H33.2039H33.1426Z" fill="#FBF9F3"/>
<path d="M99.7924 184.302L98.9643 182.707L99.6697 182.338C100.498 181.909 103.504 180.314 104.761 179.547C106.203 178.688 106.847 176.602 106.509 173.811C104.025 153.443 95.529 135.529 87.3397 118.198C80.8067 104.364 74.611 91.2658 72.372 78.4439L67.5565 81.1126L66.5137 79.2414L72.74 75.7752C72.74 75.7752 73.1081 75.7139 73.1387 75.7139C73.3534 75.7139 73.4761 75.7445 73.6295 75.8059C73.9362 75.9593 74.1509 76.266 74.2122 76.6034C76.1752 89.6094 82.5243 103.014 89.2414 117.216C97.5227 134.701 106.049 152.799 108.595 173.504C109.055 177.154 108.043 180.007 105.804 181.326C104.301 182.216 100.621 184.148 100.467 184.24L100.191 184.394L99.7924 184.271V184.302Z" fill="#FBF9F3"/>
<path d="M99.3627 182.829L99.6388 182.676C100.129 182.4 103.534 180.621 104.884 179.792C106.448 178.872 107.153 176.664 106.785 173.749C104.27 153.32 95.8048 135.406 87.5848 118.045C80.9904 104.057 74.7334 90.8976 72.5557 77.953L67.6482 80.683L66.9121 79.364L72.8317 76.0819L73.1385 76.0205C73.1385 76.0205 73.3838 76.0205 73.4758 76.1125C73.6905 76.2352 73.8439 76.4499 73.9052 76.6953C75.8682 89.732 82.2173 103.198 88.965 117.431C97.2157 134.916 105.773 152.952 108.288 173.627C108.718 177.154 107.767 179.884 105.65 181.142C104.178 182.032 100.467 183.964 100.314 184.056L100.037 184.209L99.332 182.86L99.3627 182.829Z" fill="#FBF9F3"/>
<path d="M97.3377 185.191C95.9882 185.191 94.5773 184.762 93.105 183.903L66.8808 168.78C66.5434 168.596 66.3594 168.228 66.3594 167.86V79.8856C66.3594 79.3335 66.7888 78.8734 67.3409 78.812C67.9236 78.812 68.3837 79.1801 68.4757 79.7016C70.4387 92.7076 76.7877 106.112 83.4741 120.315C91.7555 137.83 100.313 155.928 102.828 176.633C103.257 180.161 102.307 182.952 100.252 184.332C99.3927 184.915 98.4112 185.191 97.3071 185.191H97.3377ZM94.1786 182.062C95.3134 182.737 96.3869 183.075 97.3377 183.075C98.0125 183.075 98.5953 182.891 99.086 182.584C100.466 181.664 101.049 179.608 100.742 176.909C98.2579 156.541 89.7618 138.627 81.5725 121.296C76.3583 110.284 71.4202 99.824 68.4757 89.5788V167.247L94.1479 182.062H94.1786Z" fill="#FBF9F3"/>
<path d="M97.3377 184.884C96.0494 184.884 94.6692 184.455 93.2583 183.657L67.0341 168.535C66.7887 168.412 66.666 168.136 66.666 167.891V79.8855C66.666 79.4867 66.9727 79.1493 67.3715 79.1187C67.8009 79.1187 68.1076 79.3947 68.1689 79.7628C70.1319 92.7995 76.4809 106.235 83.198 120.468C91.4794 137.983 100.006 156.02 102.552 176.694C102.981 180.099 102.092 182.798 100.098 184.087C99.3006 184.608 98.3498 184.884 97.3377 184.884ZM94.0251 182.338C95.2213 183.013 96.3255 183.381 97.3377 183.381C98.0738 183.381 98.7179 183.197 99.27 182.829C100.742 181.848 101.386 179.67 101.049 176.878C98.5338 156.449 90.0685 138.535 81.8485 121.173C76.2969 109.394 71.0214 98.2595 68.1689 87.3087V167.431L93.9944 182.338H94.0251Z" fill="#FBF9F3"/>
<path d="M12.5306 182.492C12.1932 182.308 11.9785 181.939 11.9785 181.541V175.989C11.9785 173.565 12.776 170.866 14.2482 168.32L36.5772 129.731C36.7612 129.394 37.1293 129.21 37.4973 129.21L38.0187 129.333L41.3006 131.142L40.2578 133.014L37.8961 131.695L16.0885 169.363C14.831 171.541 14.0949 173.964 14.0949 175.958V180.896L16.8246 182.4L15.7818 184.271L12.4999 182.461L12.5306 182.492Z" fill="#FBF9F3"/>
<path d="M12.6839 182.247C12.4385 182.124 12.2852 181.848 12.2852 181.572V176.02C12.2852 173.658 13.0826 170.989 14.5242 168.504L36.8531 129.916C36.9758 129.671 37.2519 129.548 37.4972 129.548H37.5893L37.8653 129.64L40.8711 131.296L40.135 132.615L37.7733 131.296L15.8124 169.241C14.5242 171.48 13.7881 173.934 13.7881 175.989V181.081L16.3952 182.523L15.659 183.842L12.6532 182.185L12.6839 182.247Z" fill="#FBF9F3"/>
<path d="M15.6905 184.148L15.2917 184.026C14.9237 183.811 14.709 183.474 14.709 183.075V177.523C14.709 175.099 15.5064 172.4 16.9787 169.854L39.3076 131.266C39.4917 130.928 39.8597 130.744 40.2278 130.744C40.9332 130.898 41.3013 131.296 41.3013 131.818V168.965C41.3013 169.333 41.0866 169.701 40.7799 169.885L16.2426 184.056L15.8132 184.148H15.6905ZM18.819 170.928C17.5614 173.106 16.8253 175.529 16.8253 177.523V181.234L39.3076 168.259L39.1543 135.775L18.7883 170.928H18.819Z" fill="#FBF9F3"/>
<path d="M15.6904 183.842L15.3837 183.75C15.169 183.627 15.0156 183.382 15.0156 183.106V177.554C15.0156 175.192 15.8131 172.523 17.2547 170.039L39.5836 131.45C39.7063 131.205 39.9823 131.082 40.2277 131.082C40.7491 131.205 40.9945 131.511 40.9945 131.849V168.996C40.9945 169.272 40.8411 169.517 40.6264 169.64L16.0891 183.811L15.7824 183.873H15.6904V183.842ZM18.5735 170.775C17.2853 173.014 16.5492 175.468 16.5492 177.523V181.756L39.645 168.413L39.4916 134.61L18.5735 170.744V170.775Z" fill="#FBF9F3"/>
<path d="M41.3312 80.959C40.5337 80.959 39.7976 81.143 39.1535 81.5111C37.6812 82.37 36.8224 84.0571 36.7304 86.3577C36.5157 91.2349 39.8896 97.0631 44.245 99.3023C46.2693 100.376 48.2016 100.468 49.6738 99.6398C51.1461 98.7809 52.0049 97.0631 52.0969 94.7932C52.3116 89.9159 48.9377 84.0878 44.5823 81.8485C43.4475 81.2657 42.3433 80.959 41.3312 80.959Z" fill="#FBF9F3"/>
<path d="M8.72712 134.241C3.29823 131.112 -0.71975 123.351 0.108384 117.615C2.65413 99.7321 11.2422 91.4806 19.5542 83.5053C23.9402 79.2722 28.0809 75.3152 30.9641 70.1312L31.1174 69.8551L31.5468 69.7324L33.1417 70.622L32.835 71.1435C29.7985 76.6342 25.5658 80.6832 21.0878 85.0083C13.0211 92.769 4.67846 100.744 2.2554 117.922C1.54995 122.799 5.16921 129.701 9.8313 132.4L29.0931 143.505L28.0196 145.345L8.75779 134.241H8.72712Z" fill="#FBF9F3"/>
<path d="M8.88103 133.965C3.57484 130.898 -0.412474 123.26 0.384988 117.646C2.93073 99.855 11.4881 91.6342 19.7388 83.7202C24.1555 79.4871 28.2962 75.4994 31.1793 70.2541L31.3327 69.978L32.6516 70.7142L32.4982 70.9903C29.4924 76.4503 25.2597 80.4994 20.7816 84.7938C12.6843 92.5545 4.34163 100.591 1.8879 117.861C1.18245 122.861 4.86305 129.885 9.61715 132.646L28.6029 143.597L27.8361 144.916L8.85036 133.965H8.88103Z" fill="#FBF9F3"/>
</svg>
