<svg width="765" height="1544" viewBox="0 0 765 1544" fill="none" xmlns="http://www.w3.org/2000/svg">
<rect x="11" y="4" width="745" height="1536" rx="116" stroke="#FFA98E" stroke-width="8"/>
<path d="M2 245.5H6.5V302.5H2C1.17157 302.5 0.5 301.828 0.5 301V247C0.5 246.172 1.17157 245.5 2 245.5Z" fill="#FFA98E" stroke="#FFA98E"/>
<path d="M4 356.5H6.5V471.5H4C3.17157 471.5 2.5 470.828 2.5 470V358C2.5 357.172 3.17157 356.5 4 356.5Z" fill="#FFA98E" stroke="#FFA98E"/>
<path d="M4 503.5H6.5V618.5H4C3.17157 618.5 2.5 617.828 2.5 617V505C2.5 504.172 3.17157 503.5 4 503.5Z" fill="#FFA98E" stroke="#FFA98E"/>
<path d="M763 578.5L760.5 578.5L760.5 395.5L763 395.5C763.828 395.5 764.5 396.172 764.5 397L764.5 577C764.5 577.828 763.828 578.5 763 578.5Z" fill="#FFA98E" stroke="#FFA98E"/>
<mask id="path-6-inside-1_501_87" fill="white">
<path fill-rule="evenodd" clip-rule="evenodd" d="M19 122C19 61.801 67.801 13 128 13H638C698.199 13 747 61.801 747 122V1423C747 1483.2 698.199 1532 638 1532H128C67.801 1532 19 1483.2 19 1423V122ZM43 121C43 74.6081 80.6081 37 127 37H190C195.523 37 200 41.4772 200 47V56C200 75.8823 216.118 92 236 92H529C548.882 92 565 75.8823 565 56V47C565 41.4772 569.477 37 575 37H639C685.392 37 723 74.6081 723 121V1423C723 1469.39 685.392 1507 639 1507H127C80.6081 1507 43 1469.39 43 1423V121Z"/>
</mask>
<path fill-rule="evenodd" clip-rule="evenodd" d="M19 122C19 61.801 67.801 13 128 13H638C698.199 13 747 61.801 747 122V1423C747 1483.2 698.199 1532 638 1532H128C67.801 1532 19 1483.2 19 1423V122ZM43 121C43 74.6081 80.6081 37 127 37H190C195.523 37 200 41.4772 200 47V56C200 75.8823 216.118 92 236 92H529C548.882 92 565 75.8823 565 56V47C565 41.4772 569.477 37 575 37H639C685.392 37 723 74.6081 723 121V1423C723 1469.39 685.392 1507 639 1507H127C80.6081 1507 43 1469.39 43 1423V121Z" fill="#FFA98E"/>
<path d="M128 12C67.2487 12 18 61.2487 18 122H20C20 62.3532 68.3532 14 128 14V12ZM638 12H128V14H638V12ZM748 122C748 61.2487 698.751 12 638 12V14C697.647 14 746 62.3532 746 122H748ZM748 1423V122H746V1423H748ZM638 1533C698.751 1533 748 1483.75 748 1423H746C746 1482.65 697.647 1531 638 1531V1533ZM128 1533H638V1531H128V1533ZM18 1423C18 1483.75 67.2487 1533 128 1533V1531C68.3532 1531 20 1482.65 20 1423H18ZM18 122V1423H20V122H18ZM127 36C80.0558 36 42 74.0558 42 121H44C44 75.1604 81.1604 38 127 38V36ZM190 36H127V38H190V36ZM190 38C194.971 38 199 42.0294 199 47H201C201 40.9249 196.075 36 190 36V38ZM199 47V56H201V47H199ZM199 56C199 76.4345 215.565 93 236 93V91C216.67 91 201 75.33 201 56H199ZM236 93H529V91H236V93ZM529 93C549.435 93 566 76.4345 566 56H564C564 75.33 548.33 91 529 91V93ZM566 56V47H564V56H566ZM566 47C566 42.0294 570.029 38 575 38V36C568.925 36 564 40.9249 564 47H566ZM639 36H575V38H639V36ZM724 121C724 74.0558 685.944 36 639 36V38C684.84 38 722 75.1604 722 121H724ZM724 1423V121H722V1423H724ZM639 1508C685.944 1508 724 1469.94 724 1423H722C722 1468.84 684.84 1506 639 1506V1508ZM127 1508H639V1506H127V1508ZM42 1423C42 1469.94 80.0558 1508 127 1508V1506C81.1604 1506 44 1468.84 44 1423H42ZM42 121V1423H44V121H42Z" fill="#FFA98E" mask="url(#path-6-inside-1_501_87)"/>
<rect x="341.5" y="50.5" width="84" height="13" rx="6.5" fill="#E4E8EF" stroke="#FFA98E"/>
<circle cx="459" cy="57" r="6.5" fill="#E4E8EF" stroke="#FFA98E"/>
<rect x="16.5" y="9.5" width="733" height="1524" rx="111.5" stroke="#FF8860" stroke-width="7"/>
</svg>
